<svg width="465" height="406" viewBox="0 0 465 406" fill="none" xmlns="http://www.w3.org/2000/svg">
<path d="M436.19 52.4697L433.88 48.6697C414.39 16.9897 379.15 -2.13029 341.99 0.189714C337.206 0.488113 332.451 1.13314 327.76 2.11971C293.98 9.25971 264.59 34.4897 252.4 66.7997C245.24 85.7997 243.23 107.67 229.64 122.8C211.94 142.43 181.89 143.04 155.48 142.23C129.07 141.42 98.9901 142.11 81.3801 161.82C70.3501 174.12 66.8501 191.67 67.7401 208.2C70.0901 251.95 100.97 291.08 140.24 310.53C179.51 329.98 225.74 331.72 268.72 323.16C328.93 311.16 386.19 278.27 420.6 227.43C455.01 176.59 463.73 107.34 436.19 52.4697Z" fill="#EBEBEB"/>
<path d="M439.05 403.98V288.98H247.05C247.05 288.98 242.58 403.98 247.05 403.98H439.05Z" fill="#455A64"/>
<path d="M439.05 288.98L356.33 365.45H169.03L246.26 288.22L439.05 288.98Z" fill="#455A64"/>
<path d="M356.33 365.45H169.03V403.98H356.33V365.45Z" fill="#455A64"/>
<path d="M245.03 365.45L246.26 288.22L439.05 288.98L356.33 365.45H245.03Z" fill="#455A64"/>
<path d="M417.97 299.3L416.97 299.09C418.927 288.006 419.012 276.672 417.22 265.56C414.45 249.33 405.66 228.09 379.54 219.07L379.86 218.12C406.46 227.31 415.4 248.92 418.21 265.42C420.019 276.648 419.938 288.099 417.97 299.3Z" fill="#263238"/>
<path d="M365.235 210.71L365.004 211.177C363.881 213.449 364.813 216.202 367.086 217.325L375.566 221.517C377.839 222.64 380.592 221.708 381.715 219.435L381.945 218.969C383.068 216.697 382.137 213.944 379.864 212.821L371.383 208.629C369.111 207.506 366.358 208.438 365.235 210.71Z" fill="#263238"/>
<path d="M356.33 403.98C356.33 403.98 356.33 403.92 356.33 403.8C356.33 403.68 356.33 403.49 356.33 403.27C356.33 402.77 356.33 402.09 356.33 401.2C356.33 399.37 356.33 396.72 356.26 393.37C356.26 386.6 356.21 376.97 356.17 365.45V365.35L356.24 365.29L383.44 340.1L422.65 303.87L434.65 292.93L437.92 289.98L438.78 289.22C438.874 289.129 438.974 289.045 439.08 288.97C439.08 288.97 439 289.08 438.81 289.26L437.99 290.06L434.79 293.06L422.95 304.12L383.75 340.46L356.48 365.67L356.55 365.5C356.55 377.02 356.48 386.65 356.46 393.42C356.46 396.77 356.41 399.42 356.4 401.25C356.4 402.14 356.4 402.82 356.4 403.32C356.4 403.54 356.4 403.71 356.4 403.85C356.4 403.99 356.33 403.98 356.33 403.98Z" fill="#263238"/>
<path d="M354.82 365.67C354.82 365.81 313.19 365.93 261.82 365.93C210.45 365.93 168.82 365.81 168.82 365.67C168.82 365.53 210.45 365.4 261.82 365.4C313.19 365.4 354.82 365.5 354.82 365.67Z" fill="#263238"/>
<path d="M346.29 365.67C346.29 365.67 346.4 365.54 346.64 365.31L347.72 364.31L351.94 360.31L367.94 345.25L424.65 292.08L424.81 292.48H339.25H250.25L250.41 292.41L196.97 345.46L181.88 360.38L177.88 364.31L176.88 365.31C176.65 365.54 176.52 365.65 176.52 365.65C176.52 365.65 176.63 365.52 176.86 365.29L177.86 364.29L181.86 360.29L196.86 345.29L250.16 292.11L250.23 292.05H250.33H339.33H424.89H425.48L425.05 292.45L368.24 345.45L352.15 360.4L347.88 364.35L346.78 365.35L346.29 365.67Z" fill="#263238"/>
<path d="M246.27 366.05C246.13 366.05 246.01 350.32 246.01 330.92C246.01 311.52 246.13 295.78 246.27 295.78C246.41 295.78 246.53 311.51 246.53 330.92C246.53 350.33 246.42 366.05 246.27 366.05Z" fill="#263238"/>
<g opacity="0.4">
<path d="M353.65 400.58L352.44 399.06C352.02 398.57 351.49 397.99 350.85 397.31C350.21 396.63 349.42 395.9 348.46 395.15C346.174 393.289 343.656 391.733 340.97 390.52C337.41 388.915 333.644 387.814 329.78 387.25C325.093 386.584 320.337 386.547 315.64 387.14C310.249 387.822 304.927 388.963 299.73 390.55C294.23 392.15 288.55 394.17 282.62 396.14C276.522 398.245 270.283 399.915 263.95 401.14C257.585 402.258 251.104 402.574 244.66 402.08C238.42 401.66 232.45 400.76 226.78 399.87C221.11 398.98 215.72 398.09 210.65 397.5C205.951 396.946 201.222 396.685 196.49 396.72C189.625 396.705 182.81 397.886 176.35 400.21C175.22 400.64 174.22 401.04 173.35 401.46C172.627 401.758 171.92 402.092 171.23 402.46L169.52 403.39L171.21 402.39C171.76 402.06 172.48 401.73 173.32 401.33C174.16 400.93 175.16 400.5 176.32 400.06C182.8 397.757 189.633 396.609 196.51 396.67C201.248 396.624 205.984 396.875 210.69 397.42C215.77 398.01 221.16 398.88 226.83 399.77C232.5 400.66 238.46 401.55 244.69 401.97C251.121 402.459 257.587 402.143 263.94 401.03C270.261 399.787 276.486 398.099 282.57 395.98C288.5 393.98 294.18 391.98 299.7 390.4C304.909 388.824 310.241 387.687 315.64 387C320.352 386.422 325.12 386.469 329.82 387.14C333.695 387.72 337.471 388.834 341.04 390.45C343.729 391.674 346.247 393.244 348.53 395.12C349.53 395.88 350.24 396.66 350.92 397.3C351.6 397.94 352.08 398.58 352.49 399.07L353.65 400.58Z" fill="white"/>
</g>
<g opacity="0.4">
<path d="M259.82 374.25L257.65 375.49C256.21 376.29 254.05 377.4 251.18 378.65C243.039 382.13 234.372 384.219 225.54 384.83C219.444 385.259 213.318 384.967 207.29 383.96C206.432 383.89 205.633 383.493 205.06 382.85C204.935 382.662 204.859 382.445 204.838 382.22C204.817 381.995 204.852 381.768 204.94 381.56C205.116 381.149 205.412 380.8 205.79 380.56C206.535 380.12 207.326 379.764 208.15 379.5L210.59 378.56C213.89 377.39 217.33 376.3 220.91 375.37C235.24 371.63 251.66 370.37 268.69 371.52C270.838 371.606 272.925 372.258 274.74 373.41C275.617 374.021 276.342 374.825 276.86 375.76C277.389 376.695 277.603 377.774 277.47 378.84C277.293 379.879 276.888 380.866 276.285 381.731C275.681 382.595 274.894 383.315 273.98 383.84C272.195 384.84 270.265 385.555 268.26 385.96C260.742 387.807 253.108 389.143 245.41 389.96C232.374 391.279 219.26 391.657 206.17 391.09C194.99 390.68 185.97 389.99 179.73 389.52C173.49 389.05 170.05 388.74 170.05 388.74L179.74 389.44C185.97 389.88 195 390.55 206.17 390.95C219.255 391.488 232.361 391.093 245.39 389.77C253.078 388.953 260.702 387.616 268.21 385.77C270.186 385.362 272.088 384.653 273.85 383.67C274.733 383.16 275.493 382.464 276.079 381.63C276.664 380.795 277.061 379.843 277.24 378.84C277.317 377.81 277.111 376.778 276.644 375.856C276.176 374.934 275.466 374.158 274.59 373.61C272.807 372.48 270.759 371.839 268.65 371.75C251.65 370.58 235.24 371.86 220.94 375.59C217.36 376.51 213.94 377.59 210.63 378.77L208.19 379.69C207.388 379.944 206.614 380.279 205.88 380.69C205.533 380.908 205.256 381.22 205.08 381.59C205.005 381.771 204.976 381.968 204.996 382.164C205.015 382.359 205.082 382.547 205.19 382.71C205.742 383.298 206.496 383.655 207.3 383.71C213.314 384.717 219.426 385.016 225.51 384.6C234.331 384.009 242.991 381.944 251.13 378.49C254 377.26 256.13 376.16 257.61 375.37L259.82 374.25Z" fill="white"/>
</g>
<g opacity="0.4">
<path d="M352.13 373.67C352.13 373.67 348.95 374.22 343.74 374.59C341.14 374.78 338.03 374.88 334.58 374.85C331.13 374.82 327.34 374.59 323.38 374.16C319.42 373.73 315.68 373.07 312.3 372.37C308.92 371.67 305.92 370.87 303.42 370.1C298.42 368.6 295.42 367.37 295.42 367.37L295.97 367.54L297.56 368.09C298.25 368.34 299.09 368.63 300.08 368.93C301.07 369.23 302.18 369.62 303.44 369.93C305.94 370.68 308.95 371.43 312.32 372.15C315.69 372.87 319.43 373.47 323.38 373.92C327.33 374.37 331.12 374.56 334.56 374.63C338 374.7 341.11 374.63 343.71 374.41C345.01 374.36 346.19 374.23 347.22 374.15C348.25 374.07 349.14 373.97 349.86 373.88L351.53 373.69L352.13 373.67Z" fill="white"/>
</g>
<g opacity="0.4">
<path d="M423.71 400.84C423.71 400.84 423.89 400.54 424.27 399.98C424.65 399.42 425.19 398.59 425.87 397.51C426.693 396.193 427.434 394.827 428.09 393.42C428.972 391.569 429.546 389.586 429.79 387.55C430.064 385.067 429.527 382.562 428.26 380.41C426.744 377.98 424.541 376.056 421.93 374.88C419.035 373.622 415.895 373.024 412.74 373.13C409.363 373.227 406.009 373.707 402.74 374.56C401.04 374.94 399.41 375.5 397.8 376.01C396.19 376.52 394.63 377.16 393.15 377.87C390.263 379.151 387.469 380.635 384.79 382.31C380.259 385.157 375.986 388.396 372.02 391.99C368.63 395.05 366.02 397.72 364.31 399.58L362.31 401.76L361.61 402.51C361.61 402.51 362.52 401.43 364.23 399.51C365.94 397.59 368.52 394.94 371.9 391.86C375.856 388.251 380.122 384.998 384.65 382.14C387.332 380.462 390.129 378.975 393.02 377.69C394.51 376.97 396.1 376.43 397.69 375.82C399.28 375.21 400.95 374.74 402.69 374.36C405.983 373.494 409.366 373.014 412.77 372.93C415.957 372.824 419.128 373.432 422.05 374.71C424.692 375.904 426.92 377.857 428.45 380.32C429.726 382.506 430.262 385.045 429.98 387.56C429.722 389.611 429.134 391.606 428.24 393.47C427.571 394.875 426.816 396.237 425.98 397.55C424.56 399.67 423.71 400.84 423.71 400.84Z" fill="white"/>
</g>
<g opacity="0.4">
<path d="M414.05 405.54C414.05 405.54 413.92 405.32 413.72 404.88C413.455 404.239 413.273 403.567 413.18 402.88C413.051 401.772 413.075 400.652 413.25 399.55C413.482 398.096 413.799 396.657 414.2 395.24C414.701 393.537 415.007 391.782 415.11 390.01C415.198 389.002 415.086 387.987 414.781 387.022C414.475 386.058 413.982 385.163 413.33 384.39C412.53 383.608 411.574 383.005 410.525 382.618C409.475 382.232 408.356 382.073 407.24 382.15C404.823 382.246 402.434 382.715 400.16 383.54C392.037 386.12 384.422 390.085 377.65 395.26C375.605 396.824 373.643 398.493 371.77 400.26C371.1 400.88 370.61 401.39 370.26 401.72C369.91 402.05 369.73 402.23 369.73 402.23C369.73 402.23 370.41 401.48 371.73 400.23C373.588 398.44 375.541 396.751 377.58 395.17C384.333 389.94 391.952 385.936 400.09 383.34C402.383 382.507 404.792 382.038 407.23 381.95C408.373 381.872 409.519 382.038 410.593 382.436C411.667 382.834 412.644 383.456 413.46 384.26C414.129 385.052 414.633 385.969 414.944 386.958C415.255 387.947 415.366 388.988 415.27 390.02C415.159 391.803 414.843 393.568 414.33 395.28C413.915 396.69 413.581 398.122 413.33 399.57C413.152 400.661 413.118 401.77 413.23 402.87C413.316 403.554 413.484 404.226 413.73 404.87L414.05 405.54Z" fill="white"/>
</g>
<g opacity="0.4">
<path d="M400.38 402.76C399.944 402.21 399.459 401.701 398.93 401.24C397.611 400.166 395.971 399.564 394.27 399.53C392.572 399.539 390.927 400.12 389.6 401.18C389.06 401.631 388.564 402.133 388.12 402.68C388.473 402.06 388.942 401.513 389.5 401.07C390.831 399.937 392.524 399.32 394.271 399.331C396.019 399.342 397.704 399.98 399.02 401.13C399.572 401.583 400.033 402.136 400.38 402.76Z" fill="white"/>
</g>
<g opacity="0.4">
<path d="M439.89 335.43L438.99 335.83C438.132 336.226 437.3 336.677 436.5 337.18C433.599 339.106 431.043 341.506 428.94 344.28C426.17 347.71 423.55 352.28 420.04 356.94C418.197 359.381 416.079 361.602 413.73 363.56C411.199 365.654 408.438 367.452 405.5 368.92C399.816 371.744 393.691 373.573 387.39 374.33C382.258 374.953 377.079 375.101 371.92 374.77C367.51 374.51 363.97 374.06 361.53 373.72C359.09 373.38 357.75 373.14 357.75 373.14C357.75 373.14 358.09 373.14 358.75 373.26L361.56 373.64C364 373.96 367.56 374.38 371.95 374.64C377.098 374.947 382.262 374.783 387.38 374.15C393.659 373.384 399.762 371.558 405.43 368.75C408.349 367.283 411.096 365.495 413.62 363.42C415.955 361.468 418.065 359.261 419.91 356.84C423.42 352.2 426.05 347.62 428.85 344.2C430.969 341.42 433.55 339.026 436.48 337.12C437.283 336.619 438.122 336.178 438.99 335.8L439.89 335.43Z" fill="white"/>
</g>
<g opacity="0.4">
<path d="M419.52 330.18C419.52 330.18 419.28 330.48 418.81 331.02C418.34 331.56 417.64 332.36 416.66 333.32C415.498 334.511 414.146 335.501 412.66 336.25C411.652 336.741 410.556 337.026 409.436 337.088C408.317 337.15 407.196 336.987 406.14 336.61C404.895 336.163 403.849 335.287 403.19 334.14C402.527 332.864 402.329 331.397 402.63 329.99C402.937 328.488 403.626 327.089 404.63 325.93C405.692 324.709 406.901 323.624 408.23 322.7C411 320.561 414.228 319.092 417.66 318.41C419.499 318.1 421.381 318.151 423.2 318.56C425.092 318.977 426.847 319.868 428.3 321.15H428.35V321.21C427.872 323.424 427.203 325.592 426.35 327.69C423.255 335.175 417.971 341.55 411.19 345.98C408.244 347.895 405.047 349.393 401.69 350.43C398.55 351.36 395.28 351.56 392.69 350.36C391.534 349.83 390.502 349.063 389.662 348.108C388.821 347.154 388.19 346.034 387.81 344.82C387.248 342.977 387.319 340.999 388.01 339.2C388.427 338.064 389.074 337.025 389.91 336.15C390.194 335.842 390.509 335.564 390.85 335.32L390.61 335.53C390.373 335.732 390.149 335.95 389.94 336.18C389.125 337.062 388.495 338.099 388.09 339.23C387.416 341.013 387.356 342.97 387.92 344.79C388.286 345.981 388.896 347.083 389.71 348.027C390.524 348.97 391.525 349.734 392.65 350.27C395.2 351.43 398.44 351.27 401.55 350.27C404.889 349.234 408.066 347.736 410.99 345.82C417.739 341.429 423.005 335.103 426.1 327.67C426.953 325.582 427.622 323.424 428.1 321.22V321.32C426.668 320.122 424.988 319.257 423.18 318.788C421.373 318.32 419.484 318.259 417.65 318.61C414.242 319.273 411.036 320.725 408.29 322.85C406.974 323.764 405.775 324.835 404.72 326.04C403.717 327.177 403.028 328.556 402.72 330.04C402.435 331.395 402.622 332.806 403.25 334.04C403.89 335.159 404.908 336.013 406.12 336.45C407.158 336.826 408.261 336.991 409.363 336.934C410.466 336.878 411.546 336.601 412.54 336.12C414.02 335.382 415.371 334.409 416.54 333.24C417.54 332.24 418.23 331.49 418.71 330.96L419.52 330.18Z" fill="white"/>
</g>
<path d="M193.21 365.75H347V360.03H198.94C197.422 360.03 195.966 360.632 194.892 361.705C193.817 362.777 193.213 364.232 193.21 365.75Z" fill="#263238"/>
<path d="M232.52 364.53H343.66C345.505 364.53 347 363.034 347 361.19V278.76C347 276.915 345.505 275.42 343.66 275.42H232.52C230.675 275.42 229.18 276.915 229.18 278.76V361.19C229.18 363.034 230.675 364.53 232.52 364.53Z" fill="#263238"/>
<path d="M342.08 279.66H234.1V359.02H342.08V279.66Z" fill="#FAFAFA"/>
<path d="M234.1 359.02C234.1 359.02 234.1 358.52 234.1 357.56C234.1 356.6 234.1 355.17 234.1 353.32C234.1 349.6 234.1 344.16 234.1 337.22C234.1 323.36 234.1 303.54 234.17 279.66L234.04 279.77H342.04L341.89 279.64C341.89 308.45 341.89 335.64 341.89 359L342.03 358.88L263.92 358.94H241.92H241.86H263.86H342.06H342.2V358.83C342.2 335.43 342.2 308.28 342.2 279.47V279.33H342.03H234.03H233.89V279.67C233.89 303.58 233.95 323.43 233.96 337.31C233.96 344.23 233.96 349.66 233.96 353.37C233.96 355.22 233.96 356.63 233.96 357.59C233.96 358.55 234.1 359.02 234.1 359.02Z" fill="#263238"/>
<path d="M250.26 301.02H251.72H255.93H271.6L324.84 301.07L324.71 300.94V337.67L324.84 337.54H271.97H256.42H252.24H251.16H250.8H252.24H256.42H271.97L324.84 337.59H324.97V300.69H324.84H271.6H255.93H251.72H250.63L250.26 301.02Z" fill="#E0E0E0"/>
<path d="M250.26 307.19C250.26 307.26 266.95 307.32 287.55 307.32C308.15 307.32 324.84 307.26 324.84 307.19C324.84 307.12 308.15 307.05 287.55 307.05C266.95 307.05 250.26 307.11 250.26 307.19Z" fill="#E0E0E0"/>
<path d="M250.8 312.1C250.8 312.17 267.5 312.23 288.09 312.23C308.68 312.23 325.38 312.17 325.38 312.1C325.38 312.03 308.69 311.97 288.09 311.97C267.49 311.97 250.8 312.03 250.8 312.1Z" fill="#E0E0E0"/>
<path d="M250.26 317.28C250.26 317.35 266.95 317.41 287.55 317.41C308.15 317.41 324.84 317.35 324.84 317.28C324.84 317.21 308.15 317.15 287.55 317.15C266.95 317.15 250.26 317.21 250.26 317.28Z" fill="#E0E0E0"/>
<path d="M250.26 322.33C250.26 322.4 266.95 322.46 287.55 322.46C308.15 322.46 324.84 322.4 324.84 322.33C324.84 322.26 308.15 322.19 287.55 322.19C266.95 322.19 250.26 322.25 250.26 322.33Z" fill="#E0E0E0"/>
<path d="M250.26 327.37C250.26 327.45 266.95 327.51 287.55 327.51C308.15 327.51 324.84 327.45 324.84 327.37C324.84 327.29 308.15 327.24 287.55 327.24C266.95 327.24 250.26 327.3 250.26 327.37Z" fill="#E0E0E0"/>
<path d="M324.84 332.42C324.84 332.35 308.14 332.29 287.55 332.29C266.96 332.29 250.26 332.35 250.26 332.42C250.26 332.49 266.95 332.55 287.55 332.55C308.15 332.55 324.84 332.49 324.84 332.42Z" fill="#E0E0E0"/>
<path d="M310.07 338.21C310.14 338.21 310.2 329.89 310.2 319.62C310.2 309.35 310.14 301.02 310.07 301.02C310 301.02 309.94 309.34 309.94 319.62C309.94 329.9 310 338.21 310.07 338.21Z" fill="#E0E0E0"/>
<path d="M295.12 338.21C295.19 338.21 295.25 329.89 295.25 319.62C295.25 309.35 295.19 301.02 295.12 301.02C295.05 301.02 294.98 309.34 294.98 319.62C294.98 329.9 295.04 338.21 295.12 338.21Z" fill="#E0E0E0"/>
<path d="M280.16 338.21C280.24 338.21 280.3 329.89 280.3 319.62C280.3 309.35 280.24 301.02 280.16 301.02C280.08 301.02 280.03 309.34 280.03 319.62C280.03 329.9 280.09 338.21 280.16 338.21Z" fill="#E0E0E0"/>
<path d="M265.21 338.21C265.28 338.21 265.34 329.89 265.34 319.62C265.34 309.35 265.28 301.02 265.21 301.02C265.14 301.02 265.08 309.34 265.08 319.62C265.08 329.9 265.14 338.21 265.21 338.21Z" fill="#E0E0E0"/>
<path d="M250.26 338.21C250.33 338.21 250.39 329.89 250.39 319.62C250.39 309.35 250.33 301.02 250.26 301.02C250.19 301.02 250.12 309.34 250.12 319.62C250.12 329.9 250.18 338.21 250.26 338.21Z" fill="#E0E0E0"/>
<path d="M250.26 307.19C250.434 307.35 250.621 307.493 250.82 307.62L252.49 308.81L258.75 313.13C264.08 316.78 271.54 321.86 280.02 327.59L280.12 327.66H280.25L286.6 325.52L295.2 322.61H294.97L309.97 332.66L320.79 336.4L323.79 337.4L324.57 337.64L324.84 337.71L324.59 337.58L323.83 337.28L320.89 336.19L310.14 332.28H310.19L295.26 322.14L295.16 322.07H295.03L286.43 324.97L280.08 327.11H280.31C271.82 321.39 264.31 316.37 258.95 312.79L252.65 308.67L250.92 307.56C250.714 307.413 250.493 307.289 250.26 307.19Z" fill="#FF725E"/>
<path d="M309.16 332.42C309.16 332.6 309.214 332.776 309.314 332.925C309.413 333.075 309.556 333.192 309.722 333.26C309.888 333.329 310.071 333.347 310.248 333.312C310.424 333.277 310.586 333.19 310.714 333.063C310.841 332.936 310.928 332.774 310.963 332.597C310.998 332.421 310.98 332.238 310.911 332.072C310.842 331.905 310.725 331.763 310.576 331.663C310.426 331.563 310.25 331.51 310.07 331.51C309.829 331.51 309.597 331.606 309.427 331.776C309.256 331.947 309.16 332.178 309.16 332.42Z" fill="#FF725E"/>
<path d="M294.21 322.33C294.21 322.51 294.263 322.686 294.363 322.835C294.463 322.985 294.605 323.102 294.772 323.171C294.938 323.24 295.121 323.258 295.297 323.222C295.474 323.187 295.636 323.101 295.763 322.973C295.891 322.846 295.977 322.684 296.012 322.507C296.048 322.331 296.03 322.148 295.961 321.982C295.892 321.815 295.775 321.673 295.626 321.573C295.476 321.473 295.3 321.42 295.12 321.42C295 321.42 294.882 321.443 294.772 321.489C294.661 321.535 294.561 321.602 294.477 321.686C294.392 321.771 294.325 321.871 294.279 321.982C294.234 322.092 294.21 322.21 294.21 322.33Z" fill="#FF725E"/>
<path d="M279.25 327.29C279.25 327.531 279.346 327.763 279.517 327.933C279.687 328.104 279.919 328.2 280.16 328.2C280.401 328.2 280.633 328.104 280.803 327.933C280.974 327.763 281.07 327.531 281.07 327.29C281.07 327.049 280.974 326.817 280.803 326.646C280.633 326.476 280.401 326.38 280.16 326.38C279.919 326.38 279.687 326.476 279.517 326.646C279.346 326.817 279.25 327.049 279.25 327.29Z" fill="#FF725E"/>
<path d="M264.15 317.32C264.15 317.5 264.204 317.676 264.303 317.826C264.403 317.975 264.546 318.092 264.712 318.161C264.878 318.23 265.061 318.248 265.238 318.213C265.414 318.178 265.576 318.091 265.704 317.964C265.831 317.836 265.918 317.674 265.953 317.498C265.988 317.321 265.97 317.138 265.901 316.972C265.832 316.806 265.715 316.664 265.566 316.564C265.416 316.464 265.24 316.41 265.06 316.41C264.819 316.41 264.587 316.506 264.417 316.677C264.246 316.847 264.15 317.079 264.15 317.32Z" fill="#FF725E"/>
<path d="M250.26 332.42C250.36 332.383 250.454 332.332 250.54 332.27L251.34 331.77L254.34 329.77L265.34 322.54H265.12C269.37 325.41 274.47 328.83 280.04 332.54L280.24 332.68L280.39 332.48C282.86 329.16 285.51 325.58 288.25 321.88L295.34 312.3H294.95L309.95 327.4L321.06 331.01L324.06 331.96L324.85 332.2C324.94 332.235 325.034 332.255 325.13 332.26L324.87 332.14L324.09 331.86L321.09 330.8L310.03 327.03L310.11 327.08C305.99 322.87 300.88 317.68 295.2 311.89L294.99 311.68L294.81 311.92C292.54 314.92 290.16 318.19 287.71 321.5L279.86 332.11L280.21 332.05L265.21 322.05L265.1 321.97L264.99 322.05L254.23 329.67L251.23 331.72L250.47 332.27C250.34 332.34 250.25 332.41 250.26 332.42Z" fill="#455A64"/>
<path d="M294.21 312.23C294.21 312.471 294.306 312.703 294.477 312.873C294.647 313.044 294.879 313.14 295.12 313.14C295.361 313.14 295.593 313.044 295.763 312.873C295.934 312.703 296.03 312.471 296.03 312.23C296.03 311.988 295.934 311.757 295.763 311.586C295.593 311.416 295.361 311.32 295.12 311.32C294.879 311.32 294.647 311.416 294.477 311.586C294.306 311.757 294.21 311.988 294.21 312.23Z" fill="#455A64"/>
<path d="M309.16 327.37C309.16 327.55 309.214 327.726 309.314 327.876C309.413 328.025 309.556 328.142 309.722 328.211C309.888 328.28 310.071 328.298 310.248 328.262C310.424 328.227 310.586 328.141 310.714 328.013C310.841 327.886 310.928 327.724 310.963 327.547C310.998 327.371 310.98 327.188 310.911 327.022C310.842 326.855 310.725 326.713 310.576 326.613C310.426 326.513 310.25 326.46 310.07 326.46C309.951 326.46 309.832 326.484 309.722 326.529C309.611 326.575 309.511 326.642 309.427 326.726C309.342 326.811 309.275 326.911 309.229 327.022C309.184 327.132 309.16 327.25 309.16 327.37Z" fill="#455A64"/>
<path d="M279.25 332.42C279.25 332.6 279.303 332.776 279.403 332.925C279.503 333.075 279.645 333.192 279.812 333.26C279.978 333.329 280.161 333.347 280.338 333.312C280.514 333.277 280.676 333.19 280.803 333.063C280.931 332.936 281.017 332.774 281.053 332.597C281.088 332.421 281.07 332.238 281.001 332.072C280.932 331.905 280.815 331.763 280.666 331.663C280.516 331.563 280.34 331.51 280.16 331.51C280.041 331.51 279.922 331.533 279.812 331.579C279.701 331.625 279.601 331.692 279.517 331.776C279.432 331.861 279.365 331.961 279.319 332.072C279.274 332.182 279.25 332.3 279.25 332.42Z" fill="#455A64"/>
<path d="M264.3 323.24C264.3 323.42 264.353 323.596 264.453 323.746C264.553 323.895 264.696 324.012 264.862 324.081C265.028 324.15 265.211 324.168 265.388 324.133C265.564 324.097 265.726 324.011 265.854 323.884C265.981 323.756 266.067 323.594 266.103 323.418C266.138 323.241 266.12 323.058 266.051 322.892C265.982 322.726 265.865 322.583 265.716 322.483C265.566 322.383 265.39 322.33 265.21 322.33C264.969 322.33 264.737 322.426 264.567 322.597C264.396 322.767 264.3 322.999 264.3 323.24Z" fill="#455A64"/>
<path d="M316.31 341.83C316.777 341.969 317.266 342.016 317.75 341.97C318.235 342.017 318.724 341.97 319.19 341.83C318.721 341.702 318.234 341.658 317.75 341.7C317.266 341.659 316.779 341.703 316.31 341.83Z" fill="#E0E0E0"/>
<path d="M301.03 341.83C301.497 341.969 301.985 342.016 302.47 341.97C302.955 342.017 303.444 341.97 303.91 341.83C303.441 341.702 302.954 341.658 302.47 341.7C301.986 341.659 301.499 341.703 301.03 341.83Z" fill="#E0E0E0"/>
<path d="M285.75 341.83C286.216 341.97 286.705 342.017 287.19 341.97C287.675 342.016 288.163 341.969 288.63 341.83C288.161 341.703 287.674 341.659 287.19 341.7C286.706 341.658 286.219 341.702 285.75 341.83Z" fill="#E0E0E0"/>
<path d="M270.46 341.83C270.926 341.969 271.415 342.016 271.9 341.97C272.385 342.017 272.874 341.97 273.34 341.83C272.871 341.702 272.384 341.658 271.9 341.7C271.416 341.659 270.929 341.703 270.46 341.83Z" fill="#E0E0E0"/>
<path d="M255.18 341.83C255.646 341.97 256.136 342.017 256.62 341.97C257.105 342.016 257.594 341.969 258.06 341.83C257.603 341.696 257.126 341.642 256.65 341.67C256.155 341.634 255.657 341.688 255.18 341.83Z" fill="#E0E0E0"/>
<path d="M326.95 337.45C327.712 337.636 328.508 337.636 329.27 337.45C328.506 337.276 327.714 337.276 326.95 337.45Z" fill="#E0E0E0"/>
<path d="M326.95 331.58C327.712 331.767 328.508 331.767 329.27 331.58C328.506 331.407 327.714 331.407 326.95 331.58Z" fill="#E0E0E0"/>
<path d="M326.95 325.67C327.712 325.857 328.508 325.857 329.27 325.67C328.506 325.497 327.714 325.497 326.95 325.67Z" fill="#E0E0E0"/>
<path d="M326.95 319.84C327.712 320.026 328.508 320.026 329.27 319.84C328.506 319.667 327.714 319.667 326.95 319.84Z" fill="#E0E0E0"/>
<path d="M326.95 313.97C327.712 314.156 328.508 314.156 329.27 313.97C328.506 313.797 327.714 313.797 326.95 313.97Z" fill="#E0E0E0"/>
<path d="M326.95 308.1C327.712 308.286 328.508 308.286 329.27 308.1C328.506 307.926 327.714 307.926 326.95 308.1Z" fill="#E0E0E0"/>
<path d="M326.95 302.23C327.712 302.417 328.508 302.417 329.27 302.23C328.506 302.057 327.714 302.057 326.95 302.23Z" fill="#E0E0E0"/>
<path d="M303.8 289.85H325.23V288.33H303.8V289.85Z" fill="#FF725E"/>
<path d="M265.53 292.76C265.53 292.84 278.93 292.89 295.45 292.89C311.97 292.89 325.37 292.84 325.37 292.76C325.37 292.68 311.98 292.67 295.45 292.67C278.92 292.67 265.53 292.67 265.53 292.76Z" fill="#263238"/>
<path d="M287.4 349.16C287.4 349.23 295.57 349.29 305.65 349.29C315.73 349.29 323.89 349.23 323.89 349.16C323.89 349.09 315.72 349.03 305.65 349.03C295.58 349.03 287.4 349.09 287.4 349.16Z" fill="#263238"/>
<path d="M315.13 351.92C317.724 352.093 320.326 352.093 322.92 351.92C320.327 351.733 317.723 351.733 315.13 351.92Z" fill="#263238"/>
<path d="M254.32 348.67C254.32 348.75 260.13 348.81 267.32 348.81C274.51 348.81 280.32 348.75 280.32 348.67C280.32 348.59 274.51 348.54 267.32 348.54C260.13 348.54 254.32 348.6 254.32 348.67Z" fill="#263238"/>
<path d="M268.43 350.46C271.131 350.633 273.84 350.633 276.54 350.46C273.84 350.273 271.13 350.273 268.43 350.46Z" fill="#263238"/>
<path d="M181.4 362.89H74.3601V403.48H181.4V362.89Z" fill="#263238"/>
<path d="M252.34 214.9C252.34 214.9 248.54 211.43 247.34 207.47C246.288 204.461 244.464 201.781 242.05 199.7C241.39 199.2 238.75 196.23 238.75 196.23C238.75 196.23 238.42 193.23 242.22 193.58C246.055 193.892 249.641 195.6 252.3 198.38C254.94 201.19 256.43 199.53 258.25 198.54C260.07 197.55 265.52 195.73 266.51 192.43C267.5 189.13 272.79 179.04 272.79 179.04C272.79 179.04 278.24 169.79 279.9 170.12C281.56 170.45 282.5 171.55 281.84 173.87C281.18 176.19 276.1 189.45 277.09 191.11C278.08 192.77 279.09 192.43 279.9 191.6C280.71 190.77 294.69 174.32 297.67 174.51C300.65 174.7 300.56 177.22 299.07 179.21C297.58 181.2 285.52 196.06 285.52 196.06L293.12 190.77C293.12 190.77 301.06 183.49 302.82 183.77C305.42 184.24 304.31 188.04 302.04 190.58C299.92 192.95 294.28 199.17 294.28 199.17L288.82 206.28C288.82 206.28 301.91 200.62 302.73 201.94C303.55 203.26 303.73 205.25 302.73 206.07C301.73 206.89 290.31 213.22 290.31 213.22L276.59 228.22L252.34 214.9Z" fill="#FFBE9D"/>
<path d="M89.1401 165.03L136.97 164.41L138.45 123.55C138.45 123.55 141.72 122.85 141.94 105.12C142.16 87.3899 142.94 57.2399 142.94 57.2399C132.857 52.9088 121.8 51.3474 110.911 52.7168C100.023 54.0862 89.6971 58.3369 81.0001 65.0299L78.3701 67.0299L89.1101 127.03L89.1401 165.03Z" fill="#FFBE9D"/>
<path d="M83.96 88.8699C83.66 88.7399 71.77 85.2599 72.16 97.3899C72.55 109.52 84.65 106.67 84.65 106.28C84.65 105.89 83.96 88.8699 83.96 88.8699Z" fill="#FFBE9D"/>
<path d="M140.91 86.3297C141.22 86.1997 152.03 83.3297 151.64 95.4197C151.25 107.51 139.16 104.65 139.15 104.3C139.14 103.95 140.91 86.3297 140.91 86.3297Z" fill="#FFBE9D"/>
<path d="M154.52 51.2999C154.644 50.2007 154.488 49.0879 154.067 48.0651C153.646 47.0423 152.973 46.1427 152.11 45.4499C151.219 44.8018 150.126 44.4912 149.028 44.5737C147.929 44.6561 146.895 45.1261 146.11 45.8999C146.276 45.1589 146.285 44.3912 146.136 43.6466C145.986 42.902 145.682 42.1971 145.243 41.5777C144.803 40.9582 144.239 40.438 143.585 40.0508C142.932 39.6636 142.205 39.418 141.45 39.3299C138.56 39.1499 136.09 41.3299 133.29 42.0999C130.49 42.8699 127.64 42.1999 125.01 41.0999C122.38 39.9999 119.91 38.6699 117.25 37.6699C111.636 35.622 105.441 35.8723 100.011 38.3664C94.5809 40.8606 90.3544 45.397 88.2502 50.9899C84.3702 49.7699 79.9702 51.7399 77.5702 54.9899C75.1702 58.2399 74.5702 62.5899 75.0402 66.6299C75.4109 69.3619 76.0816 72.0448 77.0402 74.6299C77.0402 74.8499 77.0402 75.0799 77.0402 75.3099C77.2302 85.0599 82.3102 115.88 86.4702 115.95C93.7302 116.06 88.0202 83.0199 88.0202 83.0199C96.9202 79.5899 93.6002 66.2499 95.8302 64.2299C98.0602 62.2099 102.71 57.4999 121.34 67.0299C128.58 70.7299 138.2 70.6099 143.45 69.4199L143.92 69.3199H144.03C144.081 69.3025 144.131 69.2825 144.18 69.2599C145.868 68.845 147.48 68.1703 148.96 67.2599C150.707 66.257 152.087 64.7224 152.9 62.8799C153.286 61.9568 153.397 60.9419 153.22 59.9572C153.042 58.9726 152.584 58.0602 151.9 57.3299C153.349 55.6224 154.261 53.5243 154.52 51.2999Z" fill="#263238"/>
<path d="M80.03 87.5099C81.84 97.6699 81.48 103.01 83.16 109.8C85.81 120.54 91.16 128.8 100.82 134.14C110.48 139.48 123.58 139.41 131.9 132.14C137.65 127.04 141.75 121.31 142.65 113.67C143.55 106.03 144.36 92.5299 144.41 84.8599C144.51 71.0099 145.41 57.7699 145.41 57.7699L105.84 50.6699L83.33 64.0099L80.03 87.5099Z" fill="#263238"/>
<path d="M120.83 140.26C120.89 140.55 117.78 141.32 113.9 140.88C110.02 140.44 107.15 139.03 107.27 138.77C107.39 138.51 110.27 139.38 114.02 139.77C117.77 140.16 120.78 139.94 120.83 140.26Z" fill="#263238"/>
<path d="M131.12 48.8499C130.516 49.066 129.881 49.1809 129.24 49.1899C127.48 49.2078 125.741 48.8032 124.17 48.0099C121.89 46.8073 119.745 45.3659 117.77 43.7099C115.38 41.6986 112.492 40.3686 109.41 39.8599C106.602 39.4457 103.735 39.86 101.159 41.0519C98.5834 42.2438 96.4116 44.1615 94.9101 46.5699C93.6825 48.5818 92.8825 50.8251 92.5601 53.1599C92.5605 52.5213 92.6275 51.8845 92.7601 51.2599C93.1881 49.1238 94.0763 47.1066 95.3629 45.3486C96.6494 43.5906 98.3035 42.1339 100.21 41.0799C103.044 39.5638 106.286 38.9828 109.47 39.4199C112.63 39.9446 115.584 41.3285 118.01 43.4199C119.961 45.0718 122.071 46.5257 124.31 47.7599C125.831 48.5585 127.513 48.9997 129.23 49.0499C129.863 49.0211 130.495 48.9544 131.12 48.8499Z" fill="white"/>
<path d="M93.1201 53.8397C92.2073 53.4015 91.2567 53.0467 90.2801 52.7797C89.0987 52.484 87.87 52.4288 86.6668 52.6172C85.4637 52.8056 84.3106 53.2339 83.2762 53.8766C82.2418 54.5192 81.347 55.3632 80.6451 56.3584C79.9432 57.3535 79.4484 58.4796 79.1901 59.6697C78.9991 60.6587 78.8954 61.6625 78.8801 62.6697C78.7942 62.4045 78.7471 62.1283 78.7401 61.8497C78.6817 61.0897 78.7322 60.3254 78.8901 59.5797C79.1229 58.3322 79.6133 57.147 80.3298 56.0997C81.0464 55.0523 81.9734 54.1659 83.0517 53.4968C84.1301 52.8278 85.336 52.391 86.5927 52.2141C87.8493 52.0372 89.129 52.1243 90.3501 52.4697C91.0863 52.6676 91.7926 52.9636 92.4501 53.3497C92.6979 53.4765 92.9241 53.6419 93.1201 53.8397Z" fill="#455A64"/>
<path d="M91.9501 97.0898C91.6701 97.2098 90.1801 94.4298 88.6301 90.8698C87.0801 87.3098 86.0501 84.3298 86.3301 84.2098C86.6101 84.0898 88.0901 86.8698 89.6401 90.4298C91.1901 93.9898 92.2301 96.9698 91.9501 97.0898Z" fill="#455A64"/>
<path d="M102.31 104.05C102.15 104.29 99.1302 102.2 96.7102 98.4597C94.2902 94.7197 93.5602 91.1297 93.8402 91.0797C94.1202 91.0297 95.2902 94.2997 97.6402 97.8497C99.9902 101.4 102.53 103.8 102.31 104.05Z" fill="#455A64"/>
<path d="M112.54 106.29C112.38 106.55 110.13 105.41 107.81 103.38C105.49 101.35 104.04 99.27 104.27 99.08C104.5 98.89 106.27 100.58 108.53 102.54C110.79 104.5 112.71 106.03 112.54 106.29Z" fill="#455A64"/>
<path d="M130.65 89.8598C130.94 89.8598 130.91 92.7098 129.58 95.8598C128.25 99.0098 126.27 101.08 126.06 100.86C125.85 100.64 127.32 98.4298 128.55 95.4098C129.78 92.3898 130.28 89.8198 130.65 89.8598Z" fill="#455A64"/>
<path d="M136.72 80.2798C137.01 80.2798 137.3 83.7098 136.03 87.7098C134.76 91.7098 132.57 94.3898 132.35 94.2098C132.13 94.0298 133.79 91.2098 134.97 87.3798C136.15 83.5498 136.4 80.2698 136.72 80.2798Z" fill="#455A64"/>
<path d="M141.42 55.7698C140.952 56.2471 140.42 56.6576 139.84 56.9898C138.248 57.9139 136.466 58.4644 134.63 58.5998C131.905 58.792 129.172 58.3717 126.63 57.3698C123.569 56.1231 120.607 54.6455 117.77 52.9498C114.953 51.2677 111.927 49.9632 108.77 49.0698C106.192 48.3542 103.468 48.3542 100.89 49.0698C99.1551 49.553 97.5675 50.4603 96.2702 51.7098C95.3702 52.6198 95.0302 53.2498 94.9902 53.2198C95.2893 52.6192 95.6808 52.0691 96.1502 51.5898C97.4269 50.2592 99.0302 49.2868 100.8 48.7698C103.427 47.9867 106.218 47.9383 108.87 48.6298C112.067 49.5142 115.131 50.8225 117.98 52.5198C120.802 54.2079 123.743 55.6885 126.78 56.9498C129.261 57.9474 131.931 58.3878 134.6 58.2398C137.071 58.125 139.449 57.2638 141.42 55.7698Z" fill="#455A64"/>
<path d="M144.94 61.5201C144.747 61.6895 144.532 61.8309 144.3 61.9401C143.692 62.2936 143.061 62.6044 142.41 62.8701C140.27 63.7738 138.003 64.3405 135.69 64.5501C133.375 64.7604 131.041 64.6154 128.77 64.1201C128.093 63.9687 127.425 63.7784 126.77 63.5501C126.518 63.4854 126.279 63.3808 126.06 63.2401C126.06 63.1701 127.13 63.5001 128.85 63.8101C131.101 64.2025 133.393 64.3033 135.67 64.1101C137.944 63.8923 140.18 63.3779 142.32 62.5801C143.94 61.9601 144.91 61.4501 144.94 61.5201Z" fill="#455A64"/>
<path d="M31.9802 174.11C31.9802 174.11 42.4202 222.65 48.9802 242.76C58.2502 271.34 68.4702 297.38 68.4702 297.38C68.4702 297.38 61.4702 360.99 57.6502 384.21L54.0802 404.12H87.2702L95.2102 370.94L99.3802 404.12L196.03 403.86L183.71 294.08L181.05 248.31L186.85 174.11L140.26 156L84.1602 154.2L31.9802 174.11Z" fill="#FF725E"/>
<path d="M15.9201 309.82C11.091 301.247 9.0959 291.366 10.2201 281.59C12.3001 265.79 24.7301 203.12 24.7301 203.12L31.9801 174.12L59.9801 237.83L55.3201 292.22L68.8901 299.22L64.4901 331.89C64.4901 331.89 18.8701 316.09 15.9201 309.82Z" fill="#FF725E"/>
<path d="M161.07 229.48C162.16 230.99 210.28 298.64 223.84 306.19C236.09 313 248.01 311.26 251.64 306.08C255.27 300.9 277.5 232.67 277.5 232.67C277.5 232.67 269.25 213.13 251.65 215.2L234.55 250.2C234.55 250.2 214.32 219.9 211.73 212.79C209.14 205.68 187.52 173.15 186.86 174.08C184.3 177.73 154.85 220.87 161.07 229.48Z" fill="#FF725E"/>
<path d="M84.1602 155.36L88.6502 143.79C88.6502 143.79 136.86 145.13 137.65 145.4L141.03 156.31L107.76 160.45L84.1602 155.36Z" fill="#FF725E"/>
<path d="M88.6401 143.79L89.1401 141.61L137.27 143.79L137.66 145.4L88.6401 143.79Z" fill="#F5F5F5"/>
<g opacity="0.3">
<path d="M57.4002 267.61C45.9602 246.68 38.4002 219.72 32.7702 196.54C31.4202 218.32 32.1602 243.4 38.8402 264.17C41.1102 271.22 48.7802 282.32 55.9902 284.03C56.3202 284.27 56.7802 273.21 57.4002 267.61Z" fill="black"/>
</g>
<path d="M62.9902 344.14C62.9773 344.067 62.9773 343.993 62.9902 343.92L63.0502 343.26C63.0502 342.66 63.1802 341.81 63.2902 340.73C63.5202 338.48 63.8502 335.25 64.2902 331.17C65.1602 322.95 66.4002 311.33 67.8702 297.63V297.73C64.5802 288.46 60.6502 278.17 56.4802 267.36C52.5502 257.15 48.8002 247.42 45.6002 238.5C42.4002 229.58 39.6802 221.5 37.6002 214.61C33.4202 200.88 31.7502 192.15 31.7502 192.15C31.8009 192.28 31.841 192.414 31.8702 192.55C31.9402 192.83 32.0402 193.22 32.1702 193.71C32.4402 194.76 32.8202 196.26 33.3002 198.18C33.7802 200.1 34.4602 202.48 35.2002 205.23C35.9402 207.98 36.8702 211.08 37.9502 214.5C40.0502 221.35 42.7802 229.43 46.0302 238.34C49.2802 247.25 53.0302 256.96 56.9502 267.17C61.1102 277.99 65.0302 288.28 68.3002 297.57V297.63V297.67C66.7602 311.37 65.4502 322.98 64.5302 331.19C64.0602 335.26 63.6802 338.49 63.4202 340.73C63.2802 341.82 63.1802 342.66 63.1002 343.26L63.0102 343.91C63.0087 343.987 63.002 344.064 62.9902 344.14Z" fill="#263238"/>
<path d="M181.26 256.18C181.26 256.18 181.2 256.13 181.11 256.02L180.68 255.49C180.32 255.03 179.75 254.36 179.1 253.44C177.213 250.881 175.483 248.209 173.92 245.44C171.581 241.34 169.652 237.019 168.16 232.54C166.312 227.05 165.248 221.327 165 215.54C164.813 209.74 165.587 203.948 167.29 198.4C168.667 193.869 170.724 189.574 173.39 185.66C175.176 183.023 177.267 180.606 179.62 178.46C180.43 177.68 181.16 177.18 181.62 176.8L182.15 176.39C182.28 176.3 182.34 176.25 182.35 176.26C182.306 176.324 182.252 176.382 182.19 176.43L181.69 176.88C181.26 177.29 180.55 177.81 179.77 178.61C177.484 180.798 175.448 183.233 173.7 185.87C171.111 189.78 169.109 194.049 167.76 198.54C166.096 204.047 165.343 209.79 165.53 215.54C165.788 221.274 166.838 226.944 168.65 232.39C170.118 236.847 172.003 241.157 174.28 245.26C175.8 248.035 177.469 250.726 179.28 253.32C179.9 254.25 180.44 254.94 180.77 255.43L181.16 255.98C181.203 256.042 181.237 256.109 181.26 256.18Z" fill="#263238"/>
<g opacity="0.3">
<path d="M165.44 217.37C168.26 243.37 173.52 269.22 183.72 293.3L181.34 257.4C173.601 245.16 168.209 231.585 165.44 217.37Z" fill="black"/>
</g>
<g opacity="0.3">
<path d="M78.6501 270.13C94.8176 295.073 116.797 315.721 142.7 330.3Z" fill="black"/>
</g>
<path d="M55.3801 291.14C55.3801 291.24 54.2601 290.84 52.3801 290.62C51.3088 290.486 50.2271 290.456 49.1501 290.53C47.8327 290.629 46.5291 290.863 45.2601 291.23C44.0093 291.62 42.8001 292.132 41.6501 292.76C40.7106 293.293 39.8204 293.909 38.9901 294.6C37.6501 295.79 36.9001 296.67 36.8201 296.67C36.7401 296.67 36.9501 296.41 37.2601 295.98C37.4466 295.72 37.654 295.476 37.8801 295.25C38.1531 294.924 38.4507 294.62 38.7701 294.34C39.5827 293.58 40.4745 292.91 41.4301 292.34C42.6079 291.66 43.8593 291.117 45.1601 290.72C46.463 290.341 47.8051 290.113 49.1601 290.04C50.2674 289.992 51.3766 290.059 52.4701 290.24C52.8886 290.304 53.3028 290.394 53.7101 290.51C54.0245 290.58 54.3323 290.677 54.6301 290.8C54.8979 290.869 55.1517 290.984 55.3801 291.14Z" fill="#263238"/>
<path d="M242.46 271.3C242.096 270.199 241.799 269.077 241.57 267.94C241.05 265.86 240.28 263 239.26 259.94C238.24 256.88 237.18 254.07 236.37 252.09C235.886 251.035 235.462 249.953 235.1 248.85C235.299 249.093 235.464 249.362 235.59 249.65C235.87 250.18 236.26 250.96 236.71 251.94C237.869 254.496 238.887 257.113 239.76 259.78C240.634 262.444 241.358 265.155 241.93 267.9C242.14 268.96 242.3 269.82 242.38 270.41C242.447 270.702 242.474 271.001 242.46 271.3Z" fill="#263238"/>
<path d="M237.73 283.67C237.562 283.259 237.431 282.834 237.34 282.4C237.12 281.57 236.84 280.4 236.53 278.88C235.724 274.982 235.134 271.043 234.76 267.08C234.38 263.122 234.213 259.146 234.26 255.17C234.26 253.64 234.34 252.41 234.4 251.56C234.394 251.116 234.441 250.673 234.54 250.24C234.598 250.677 234.618 251.119 234.6 251.56C234.6 252.56 234.6 253.73 234.6 255.17C234.65 258.17 234.81 262.41 235.25 267.04C235.69 271.67 236.33 275.81 236.86 278.81L237.51 282.35C237.635 282.78 237.708 283.223 237.73 283.67Z" fill="#263238"/>
<path d="M151.34 333.93L151.09 333.87L150.36 333.63C149.72 333.41 148.76 333.14 147.57 332.63C144.174 331.366 140.864 329.883 137.66 328.19C132.9 325.706 128.34 322.858 124.02 319.67C118.739 315.743 113.746 311.442 109.08 306.8C100.713 298.272 92.9632 289.159 85.8902 279.53C83.1402 275.86 80.9502 272.87 79.4602 270.79L77.7402 268.39L77.3102 267.76C77.2102 267.61 77.1602 267.54 77.1702 267.53C77.2377 267.586 77.2982 267.649 77.3502 267.72L77.8302 268.33L79.6502 270.67L86.2102 279.3C93.3555 288.85 101.129 297.914 109.48 306.43C114.129 311.056 119.094 315.353 124.34 319.29C128.628 322.498 133.147 325.386 137.86 327.93C141.039 329.641 144.315 331.167 147.67 332.5C148.85 333 149.8 333.3 150.42 333.56L151.14 333.84C151.27 333.88 151.35 333.92 151.34 333.93Z" fill="#263238"/>
<g opacity="0.3">
<path d="M55.3702 291.27C49.8302 289.34 42.2502 291.38 37.7902 295.62C36.6911 296.588 35.8348 297.8 35.2902 299.16C35.024 299.842 34.9137 300.575 34.9673 301.305C35.0209 302.035 35.2372 302.744 35.6002 303.38C36.7802 305.23 39.4102 305.74 41.4802 305.01C43.5165 304.141 45.2397 302.673 46.4202 300.8C47.5908 298.942 48.8661 297.153 50.2402 295.44C50.9334 294.587 51.7981 293.889 52.7783 293.391C53.7585 292.893 54.8323 292.606 55.9302 292.55L55.2902 292.21L55.3702 291.27Z" fill="black"/>
</g>
<g opacity="0.3">
<path d="M63.0301 296.22L61.3701 330.82L64.4601 331.91L67.9601 298.78L63.0301 296.22Z" fill="black"/>
</g>
<g opacity="0.3">
<path d="M234.65 250.23C234.341 262.343 235.612 274.445 238.43 286.23C238.81 287.82 239.91 289.82 241.43 289.34C242.95 288.86 242.84 286.84 242.49 285.34C241.35 280.493 240.213 275.643 239.08 270.79L234.28 250.34" fill="black"/>
</g>
<path d="M251.65 215.2L252.97 212.28C252.97 212.28 264.32 208.89 271.58 215.2C278.84 221.51 279.58 226.86 279.58 226.86L276.96 231.52C276.96 231.52 269.02 214.96 251.65 215.2Z" fill="#FAFAFA"/>
<path d="M139.33 155.74C139.149 155.803 138.961 155.843 138.77 155.86L137.15 156.08C135.74 156.27 133.7 156.49 131.15 156.7C124.555 157.246 117.935 157.423 111.32 157.23C104.705 157.042 98.1045 156.488 91.5502 155.57C89.0402 155.21 87.0102 154.87 85.6202 154.57L84.0102 154.26C83.8213 154.233 83.6365 154.183 83.4602 154.11C83.6496 154.088 83.8409 154.088 84.0302 154.11L85.6502 154.33C87.0502 154.54 89.0802 154.82 91.6502 155.13C96.6502 155.76 103.65 156.42 111.38 156.64C119.11 156.86 126.11 156.64 131.17 156.27C133.7 156.1 135.74 155.94 137.17 155.81L138.8 155.68C138.978 155.687 139.155 155.707 139.33 155.74Z" fill="#263238"/>
<path d="M91.5101 353.89C91.6501 353.89 93.5101 365.1 95.6801 378.97C97.8501 392.84 99.4801 404.1 99.3401 404.12C99.2001 404.14 97.3401 392.92 95.1701 379.05C93.0001 365.18 91.3701 353.92 91.5101 353.89Z" fill="#263238"/>
<path d="M464.71 404.2C464.71 404.34 360.8 404.46 232.71 404.46C104.62 404.46 0.640137 404.34 0.640137 404.2C0.640137 404.06 104.52 403.94 232.71 403.94C360.9 403.94 464.71 404.06 464.71 404.2Z" fill="#263238"/>
<path d="M170.95 116.1L181.28 97.9098C174.899 87.5438 172.626 75.166 174.908 63.2092C177.19 51.2525 183.861 40.5816 193.611 33.2939C203.361 26.0063 215.484 22.6289 227.598 23.8257C239.711 25.0225 250.939 30.7069 259.075 39.7616C267.21 48.8163 271.664 60.5864 271.562 72.7585C271.46 84.9306 266.809 96.6243 258.523 105.541C250.237 114.458 238.915 119.953 226.783 120.947C214.651 121.94 202.586 118.36 192.96 110.91L170.95 116.1Z" fill="white"/>
<path d="M170.95 116.1L192.95 110.79L192.88 111L192.28 110.22L193.06 110.82C196.15 113.183 199.507 115.177 203.06 116.76C207.283 118.631 211.751 119.887 216.33 120.49C218.861 120.837 221.418 120.961 223.97 120.86C225.29 120.78 226.63 120.74 227.97 120.62L232.05 120C244.177 117.583 254.933 110.648 262.14 100.6C266.14 95.045 268.909 88.7004 270.26 81.9899C271.636 74.893 271.435 67.5803 269.67 60.5699C267.856 53.2453 264.318 46.4602 259.35 40.7799L257.35 38.6199C256.7 37.8899 255.93 37.2899 255.23 36.6199C254.53 35.9499 253.84 35.2799 253.05 34.7199L250.74 32.9899C249.98 32.4095 249.182 31.8816 248.35 31.4099L245.91 29.9199L243.34 28.6699C242.503 28.2378 241.641 27.8538 240.76 27.5199C233.906 24.8112 226.532 23.6733 219.18 24.1899C212.226 24.6616 205.459 26.6552 199.36 30.0299C188.398 36.1194 180.188 46.1798 176.42 58.1399C174.914 63.2344 174.193 68.5283 174.28 73.8399C174.394 78.454 175.172 83.0277 176.59 87.4199C177.778 91.0703 179.385 94.5704 181.38 97.8499V97.9199V97.9799C174.69 109.61 171.38 115.34 170.94 116.11C171.38 115.34 174.61 109.56 181.16 97.8599V97.9799C179.13 94.6941 177.495 91.1797 176.29 87.5099C174.842 83.0952 174.041 78.4942 173.91 73.8499C173.802 68.4965 174.514 63.1582 176.02 58.0199C179.799 45.9415 188.067 35.7729 199.12 29.6099C205.272 26.1945 212.1 24.1734 219.12 23.6899C226.547 23.1584 233.998 24.3069 240.92 27.0499C241.815 27.3786 242.687 27.7662 243.53 28.2099L246.11 29.4599L248.58 30.9599C249.424 31.4347 250.233 31.9694 251 32.5599L253.33 34.2999C254.13 34.8699 254.8 35.5899 255.54 36.2299C256.28 36.8699 257.03 37.5099 257.68 38.2299L259.68 40.4199C264.693 46.1645 268.264 53.0204 270.1 60.4199C271.887 67.5056 272.085 74.8987 270.68 82.0699C269.31 88.8472 266.507 95.2536 262.46 100.86C255.175 110.993 244.306 117.972 232.06 120.38L227.95 121C226.59 121.12 225.24 121.15 223.95 121.22C221.377 121.317 218.801 121.19 216.25 120.84C207.732 119.69 199.673 116.294 192.9 111L193.08 110.82L193.21 110.98H193.01L170.95 116.1Z" fill="#263238"/>
<path d="M209.35 71.6699C209.35 72.461 209.116 73.2344 208.676 73.8922C208.236 74.55 207.612 75.0627 206.881 75.3654C206.15 75.6682 205.346 75.7474 204.57 75.5931C203.794 75.4387 203.081 75.0578 202.522 74.4984C201.962 73.9389 201.581 73.2262 201.427 72.4503C201.273 71.6744 201.352 70.8701 201.655 70.1392C201.957 69.4083 202.47 68.7836 203.128 68.344C203.786 67.9045 204.559 67.6699 205.35 67.6699C206.411 67.6699 207.428 68.0913 208.179 68.8415C208.929 69.5916 209.35 70.6091 209.35 71.6699Z" fill="#263238"/>
<path d="M225.45 71.6699C225.45 72.461 225.216 73.2344 224.776 73.8922C224.337 74.55 223.712 75.0627 222.981 75.3654C222.25 75.6682 221.446 75.7474 220.67 75.5931C219.894 75.4387 219.181 75.0578 218.622 74.4984C218.062 73.9389 217.681 73.2262 217.527 72.4503C217.373 71.6744 217.452 70.8701 217.755 70.1392C218.057 69.4083 218.57 68.7836 219.228 68.344C219.886 67.9045 220.659 67.6699 221.45 67.6699C222.511 67.6699 223.528 68.0913 224.279 68.8415C225.029 69.5916 225.45 70.6091 225.45 71.6699Z" fill="#263238"/>
<path d="M241.52 69.67C241.911 70.3555 242.09 71.1412 242.035 71.9282C241.98 72.7152 241.694 73.4685 241.212 74.0931C240.73 74.7178 240.074 75.186 239.327 75.4389C238.579 75.6918 237.774 75.718 237.012 75.5143C236.25 75.3105 235.565 74.886 235.043 74.294C234.522 73.702 234.187 72.969 234.081 72.1872C233.975 71.4054 234.103 70.6098 234.448 69.9003C234.793 69.1908 235.34 68.5993 236.02 68.2C236.477 67.932 236.983 67.7573 237.507 67.6862C238.032 67.615 238.566 67.6488 239.078 67.7855C239.589 67.9223 240.069 68.1593 240.488 68.4828C240.907 68.8063 241.258 69.2098 241.52 69.67Z" fill="#263238"/>
</svg>
