<svg width="427" height="422" viewBox="0 0 427 422" fill="none" xmlns="http://www.w3.org/2000/svg">
<path d="M367.57 56.6001C350.4 33.5201 323.89 18.8901 295.14 17.6001C283.95 17.0666 272.752 18.4533 262.03 21.7001C230.09 31.4601 203.93 58.2701 194.95 90.4401C189.67 109.36 189.61 130.6 177.8 146.3C162.42 166.72 133.53 169.88 108.01 171.3C82.49 172.72 53.58 176.07 38.3 196.6C28.73 209.43 26.85 226.6 29.12 242.48C35.12 284.48 68.21 319.48 107.71 334.88C147.21 350.28 191.89 347.99 232.57 336.08C289.57 319.39 341.9 282.79 370.71 230.88C398.16 181.42 401.71 117.88 374.99 68.2601C372.801 64.1999 370.321 60.3031 367.57 56.6001Z" fill="#EBEBEB"/>
<path d="M218.09 157.92C218.09 157.92 229.37 160.62 230.5 161.38C231.63 162.14 238.01 170.2 238.02 171.06C238.03 171.92 239.78 183.65 238.02 182.81C236.26 181.97 235.16 173.76 235.16 173.76L234.3 172.89C234.3 172.89 235.44 179.89 235.09 181.6C234.74 183.31 233.03 183.22 232.75 181.96C232.47 180.7 231.69 174.51 231.34 174.24C230.99 173.97 231.85 181.08 231.66 181.94C231.41 183.09 229.72 183.75 229.41 182.51C229.22 181.77 228.78 174.95 228.78 174.95C228.702 177.032 228.512 179.108 228.21 181.17C228.105 181.357 227.943 181.506 227.747 181.594C227.551 181.682 227.332 181.705 227.123 181.659C226.913 181.613 226.724 181.501 226.583 181.339C226.442 181.177 226.357 180.974 226.34 180.76C226.26 179.97 226.78 175.89 226.67 174.83C226.67 174.83 226.12 173.98 223.97 173.76C222.97 173.65 216.91 173.66 215.9 170.36C215.01 167.44 211.68 165.36 211.68 165.36L218.09 157.92Z" fill="#B78876"/>
<path d="M238.01 182.8C237.483 182.275 237.068 181.649 236.79 180.96C236.434 180.236 236.149 179.479 235.94 178.7C235.75 177.82 235.58 176.85 235.39 175.83C235.26 175.08 235.13 174.35 235.02 173.66L235.07 173.78C233.921 172.442 232.89 171.007 231.99 169.49C233.268 170.719 234.436 172.057 235.48 173.49V173.6C235.61 174.28 235.74 175 235.88 175.75C236.06 176.75 236.22 177.69 236.38 178.6C236.56 179.357 236.797 180.099 237.09 180.82C237.65 182.04 238.08 182.75 238.01 182.8Z" fill="#AA6550"/>
<path d="M220.63 161.89C220.483 162.355 220.485 162.854 220.638 163.318C220.79 163.781 221.085 164.184 221.48 164.47C222.22 165.1 223.15 165.47 223.93 166.05C226.26 167.78 226.93 171.16 229.37 172.78C229.7 173 230.19 173.18 230.48 172.9C230.77 172.62 230.64 172.19 230.48 171.84L227.25 162.76" fill="#B78876"/>
<path d="M227.29 162.76C227.485 163.071 227.636 163.408 227.74 163.76C228 164.38 228.35 165.28 228.74 166.4C229.13 167.52 229.67 168.9 230.21 170.35L230.63 171.5C230.87 171.937 230.927 172.451 230.79 172.93C230.716 173.074 230.6 173.193 230.457 173.27C230.314 173.346 230.151 173.378 229.99 173.36C229.726 173.336 229.471 173.247 229.25 173.1C228.854 172.835 228.488 172.526 228.16 172.18C227.092 170.819 226.12 169.385 225.25 167.89C224.842 167.287 224.346 166.748 223.78 166.29C223.24 165.88 222.65 165.58 222.14 165.29C221.7 165.063 221.315 164.742 221.012 164.35C220.71 163.957 220.498 163.504 220.39 163.02C220.351 162.848 220.35 162.67 220.386 162.497C220.422 162.325 220.495 162.162 220.6 162.02C220.536 162.35 220.536 162.69 220.6 163.02C220.735 163.458 220.96 163.862 221.262 164.206C221.563 164.551 221.934 164.828 222.35 165.02C222.85 165.32 223.45 165.6 224.05 166.02C224.669 166.487 225.212 167.047 225.66 167.68C226.544 169.138 227.513 170.544 228.56 171.89C228.859 172.206 229.195 172.484 229.56 172.72C229.89 172.94 230.26 172.98 230.33 172.78C230.4 172.58 230.33 172.15 230.15 171.78L229.76 170.63C229.26 169.17 228.76 167.83 228.4 166.63C228.04 165.43 227.72 164.57 227.53 163.93C227.381 163.557 227.3 163.161 227.29 162.76Z" fill="#AA6550"/>
<path d="M190.7 154.31L213.93 167.22L219.11 158.16L187.84 133.37L190.7 154.31Z" fill="#B78876"/>
<path d="M137.9 189.31L227.34 141.35L215.49 120.11L278.44 126.91L251.46 183.88L239.85 163.06L150.1 211.18L137.9 189.31Z" fill="#FF725E"/>
<path opacity="0.6" d="M137.9 189.31L227.34 141.35L215.49 120.11L278.44 126.91L251.46 183.88L239.85 163.06L150.1 211.18L137.9 189.31Z" fill="black"/>
<path d="M134.02 191.65L226.59 150.06L216.25 128.04L278.57 139.22L247.69 194.17L237.55 172.59L144.66 214.33L134.02 191.65Z" fill="#FF725E"/>
<path d="M137.76 358.25L132.97 398.25L183.65 399.37C183.46 394.53 155.34 384.37 155.34 384.37L160.71 357.73L137.76 358.25Z" fill="#FF725E"/>
<path d="M141.81 381.68C141.321 381.82 140.9 382.135 140.628 382.564C140.355 382.994 140.249 383.508 140.33 384.01C140.452 384.505 140.757 384.934 141.185 385.211C141.612 385.488 142.129 385.591 142.63 385.5C143.148 385.352 143.594 385.019 143.882 384.563C144.17 384.107 144.279 383.562 144.19 383.03C144.012 382.524 143.645 382.107 143.165 381.866C142.686 381.625 142.132 381.58 141.62 381.74" fill="white"/>
<path d="M132.96 398.24L133.19 394.14L181.7 396.75C181.7 396.75 183.93 397.75 183.64 399.36L132.96 398.24Z" fill="#263238"/>
<path d="M156.09 384.82C156.09 385.07 154.83 385.15 153.6 385.92C152.37 386.69 151.69 387.72 151.47 387.61C151.25 387.5 151.64 386.09 153.15 385.19C154.66 384.29 156.14 384.6 156.09 384.82Z" fill="#263238"/>
<path d="M162.68 387.27C162.73 387.51 161.68 387.91 160.78 388.94C159.88 389.97 159.65 391.06 159.41 391.05C159.17 391.04 159.03 389.63 160.13 388.37C161.23 387.11 162.68 387.03 162.68 387.27Z" fill="#263238"/>
<path d="M165.45 393.45C165.23 393.45 164.91 392.26 165.58 390.92C166.25 389.58 167.41 389.06 167.51 389.27C167.61 389.48 166.88 390.19 166.35 391.27C165.82 392.35 165.7 393.43 165.45 393.45Z" fill="#263238"/>
<path d="M155.84 378.03C155.73 378.25 154.6 377.89 153.2 377.95C151.8 378.01 150.7 378.43 150.58 378.22C150.46 378.01 151.52 377.14 153.17 377.09C154.82 377.04 155.96 377.84 155.84 378.03Z" fill="#263238"/>
<path d="M156.87 371.97C156.032 372.173 155.155 372.149 154.33 371.9C153.419 371.714 152.533 371.422 151.69 371.03C151.192 370.792 150.711 370.522 150.25 370.22C149.969 370.059 149.715 369.853 149.5 369.61C149.342 369.43 149.248 369.204 149.232 368.965C149.216 368.727 149.278 368.489 149.41 368.29C149.539 368.121 149.705 367.984 149.896 367.89C150.087 367.796 150.297 367.748 150.51 367.75C150.832 367.753 151.152 367.803 151.46 367.9C152 368.045 152.526 368.239 153.03 368.48C153.874 368.884 154.65 369.417 155.33 370.06C156.49 371.18 156.87 372.11 156.78 372.16C156.69 372.21 156.11 371.45 154.93 370.52C154.249 369.982 153.499 369.538 152.7 369.2C152.231 369 151.746 368.839 151.25 368.72C150.72 368.56 150.25 368.55 150.12 368.79C150.07 368.88 150.06 368.91 150.12 369.07C150.278 369.249 150.464 369.401 150.67 369.52C151.097 369.812 151.542 370.079 152 370.32C152.778 370.726 153.592 371.06 154.43 371.32C155.257 371.482 156.072 371.699 156.87 371.97Z" fill="#263238"/>
<path d="M156.54 372.32C156.074 371.584 155.857 370.719 155.92 369.85C155.883 368.347 156.26 366.863 157.01 365.56C157.153 365.226 157.38 364.936 157.669 364.716C157.959 364.497 158.3 364.357 158.66 364.31C158.878 364.326 159.088 364.403 159.265 364.532C159.441 364.661 159.578 364.837 159.66 365.04C159.785 365.34 159.866 365.657 159.9 365.98C159.985 366.547 159.985 367.123 159.9 367.69C159.732 368.632 159.341 369.52 158.76 370.28C157.76 371.57 156.7 371.85 156.68 371.76C156.66 371.67 157.47 371.18 158.26 369.93C158.708 369.213 158.998 368.408 159.11 367.57C159.175 367.082 159.175 366.588 159.11 366.1C159.04 365.56 158.85 365.1 158.64 365.17C158.43 365.24 157.95 365.56 157.74 365.98C157.48 366.413 157.259 366.868 157.08 367.34C156.777 368.15 156.592 368.998 156.53 369.86C156.43 371.35 156.68 372.28 156.54 372.32Z" fill="#263238"/>
<path d="M216.88 321.15L216.59 361.81L267.28 362.93C267.08 358.09 238.96 347.93 238.96 347.93L239.83 320.62L216.88 321.15Z" fill="#FF725E"/>
<path d="M225.45 345.26C224.956 345.396 224.53 345.711 224.255 346.144C223.98 346.576 223.875 347.095 223.96 347.6C224.082 348.095 224.387 348.524 224.815 348.801C225.242 349.078 225.759 349.181 226.26 349.09C226.781 348.946 227.229 348.614 227.518 348.157C227.806 347.7 227.914 347.152 227.82 346.62C227.642 346.116 227.277 345.701 226.799 345.46C226.322 345.22 225.771 345.173 225.26 345.33" fill="white"/>
<path d="M216.59 361.81V357.7L265.33 360.32C265.33 360.32 267.56 361.32 267.28 362.93L216.59 361.81Z" fill="#263238"/>
<path d="M239.76 348.39C239.76 348.64 238.5 348.73 237.27 349.49C236.04 350.25 235.36 351.29 235.14 351.19C234.92 351.09 235.31 349.66 236.82 348.76C238.33 347.86 239.76 348.17 239.76 348.39Z" fill="#263238"/>
<path d="M246.31 350.84C246.36 351.08 245.31 351.48 244.42 352.51C243.53 353.54 243.29 354.64 243.04 354.62C242.79 354.6 242.67 353.2 243.76 351.94C244.85 350.68 246.31 350.6 246.31 350.84Z" fill="#263238"/>
<path d="M249.09 357.02C248.86 357.07 248.54 355.83 249.21 354.49C249.88 353.15 251.04 352.63 251.14 352.84C251.24 353.05 250.51 353.76 249.98 354.84C249.45 355.92 249.33 357 249.09 357.02Z" fill="#263238"/>
<path d="M239.47 341.6C239.36 341.82 238.23 341.46 236.83 341.52C235.43 341.58 234.33 342 234.21 341.79C234.09 341.58 235.15 340.71 236.8 340.66C238.45 340.61 239.6 341.41 239.47 341.6Z" fill="#263238"/>
<path d="M240.5 335.54C239.662 335.743 238.785 335.719 237.96 335.47C237.051 335.29 236.167 334.998 235.33 334.6C234.829 334.362 234.345 334.092 233.88 333.79C233.599 333.628 233.345 333.422 233.13 333.18C232.971 333.001 232.876 332.773 232.862 332.534C232.847 332.294 232.913 332.057 233.05 331.86C233.177 331.691 233.341 331.554 233.531 331.46C233.72 331.366 233.929 331.318 234.14 331.32C234.462 331.327 234.781 331.377 235.09 331.47C236.541 331.859 237.874 332.601 238.97 333.63C240.12 334.75 240.5 335.68 240.41 335.73C240.32 335.78 239.74 335.02 238.57 334.1C237.882 333.564 237.13 333.117 236.33 332.77C235.861 332.568 235.376 332.408 234.88 332.29C234.35 332.14 233.88 332.12 233.75 332.36C233.62 332.6 233.69 332.48 233.8 332.64C233.96 332.816 234.145 332.968 234.35 333.09C234.779 333.38 235.223 333.647 235.68 333.89C236.456 334.3 237.27 334.634 238.11 334.89C238.92 335.054 239.718 335.271 240.5 335.54Z" fill="#263238"/>
<path d="M240.17 335.89C239.703 335.155 239.489 334.288 239.56 333.42C239.531 332.48 239.667 331.543 239.96 330.65C240.136 330.122 240.364 329.613 240.64 329.13C240.784 328.797 241.011 328.507 241.3 328.287C241.589 328.068 241.93 327.928 242.29 327.88C242.507 327.899 242.715 327.977 242.891 328.106C243.068 328.235 243.205 328.409 243.29 328.61C243.414 328.91 243.495 329.227 243.53 329.55C243.615 330.117 243.615 330.693 243.53 331.26C243.368 332.204 242.976 333.093 242.39 333.85C241.39 335.15 240.33 335.42 240.31 335.33C240.29 335.24 241.1 334.75 241.89 333.5C242.347 332.787 242.637 331.98 242.74 331.14C242.81 330.652 242.81 330.157 242.74 329.67C242.67 329.13 242.48 328.67 242.27 328.74C242.06 328.81 241.59 329.13 241.37 329.56C241.106 329.991 240.885 330.446 240.71 330.92C240.41 331.73 240.225 332.578 240.16 333.44C240.06 334.92 240.31 335.85 240.17 335.89Z" fill="#263238"/>
<path d="M189.37 179.54C189 181.37 185.72 227.71 183.53 244.86C181.34 262.01 163.76 373.79 163.76 373.79L131.76 371.68C131.76 371.68 141.97 252.89 142.7 243.03C143.43 233.17 136.05 194.5 139.38 184.29C142.71 174.08 148.09 169.93 148.09 169.93L166.42 163.85L189.42 167.14L189.37 179.54Z" fill="#263238"/>
<path d="M246.31 333.53C246.31 333.53 248.86 258.53 246.31 248.36C243.76 238.19 185.31 183.19 185.31 183.19L176.76 231.72C176.76 231.72 198.22 247.95 214.07 260.63L212.35 333.53H246.31Z" fill="#263238"/>
<path d="M189.06 186.71C189.07 186.793 189.07 186.877 189.06 186.96C189.06 187.16 189.06 187.4 189.06 187.69C189.06 188.38 188.97 189.32 188.91 190.5C188.78 192.94 188.53 196.5 188.18 200.82C187.47 209.53 186.27 221.54 184.65 234.82C183.03 248.1 181.36 260.01 180.04 268.65C179.38 272.97 178.81 276.45 178.4 278.86C178.2 280.03 178.03 280.96 177.91 281.63L177.77 282.35C177.762 282.433 177.742 282.513 177.71 282.59C177.694 282.507 177.694 282.423 177.71 282.34C177.71 282.147 177.74 281.907 177.8 281.62C177.9 280.953 178.03 280.023 178.19 278.83C178.55 276.37 179.05 272.88 179.66 268.59C180.89 259.95 182.51 247.99 184.12 234.76C185.73 221.53 187 209.54 187.8 200.84C188.2 196.49 188.51 192.97 188.7 190.54C188.8 189.35 188.88 188.42 188.94 187.74C188.94 187.44 189 187.2 189.02 187.01C189.018 186.909 189.032 186.807 189.06 186.71Z" fill="#455A64"/>
<path d="M231.9 249.85C230.974 250.381 230.016 250.852 229.03 251.26C227.25 252.11 224.83 253.36 222.26 254.91C219.69 256.46 217.48 258.06 215.9 259.24C215.083 259.929 214.221 260.564 213.32 261.14C213.32 261.14 213.51 260.89 213.91 260.5C214.31 260.11 214.91 259.59 215.67 258.95C217.671 257.313 219.783 255.817 221.99 254.47C224.2 253.128 226.502 251.945 228.88 250.93C229.8 250.54 230.54 250.25 231.07 250.08C231.334 249.964 231.614 249.886 231.9 249.85Z" fill="#455A64"/>
<path d="M236.81 257.21C235.65 257.465 234.474 257.639 233.29 257.73C231.11 258 228.11 258.37 224.8 258.85C221.49 259.33 218.51 259.85 216.34 260.16C215.179 260.405 214.003 260.569 212.82 260.65C213.114 260.52 213.423 260.426 213.74 260.37C214.33 260.22 215.2 260.02 216.28 259.8C218.42 259.35 221.41 258.8 224.73 258.33C228.05 257.86 231.06 257.54 233.25 257.33C234.35 257.24 235.25 257.19 235.85 257.17C236.17 257.141 236.493 257.154 236.81 257.21Z" fill="#455A64"/>
<path d="M146.89 40.5997C145.642 38.3033 143.613 36.5296 141.17 35.5997C139.946 35.1594 138.627 35.0523 137.347 35.2895C136.068 35.5268 134.875 36.0997 133.89 36.9497C132.94 37.84 132.333 39.0352 132.174 40.3271C132.015 41.6191 132.314 42.9258 133.02 44.0197C131.757 43.8133 130.462 43.9262 129.254 44.3483C128.045 44.7703 126.962 45.4881 126.102 46.4361C125.242 47.3841 124.633 48.5323 124.33 49.7759C124.028 51.0196 124.041 52.3192 124.369 53.5564C124.698 54.7935 125.33 55.9288 126.21 56.8589C127.089 57.7889 128.187 58.4841 129.404 58.8811C130.621 59.278 131.918 59.3642 133.176 59.1317C134.435 58.8991 135.615 58.3553 136.61 57.5497C136.835 58.5014 137.3 59.3795 137.96 60.1007C138.621 60.8219 139.455 61.362 140.383 61.6698C141.311 61.9775 142.303 62.0425 143.263 61.8587C144.224 61.675 145.121 61.2484 145.87 60.6197C149.63 57.4597 148.51 50.4497 152.74 47.9297" fill="#263238"/>
<path d="M152.49 14.9398C153.61 11.4798 159.36 8.34983 162.49 6.53983C167.2 3.82983 171.57 4.36983 174.26 6.77983C179.13 2.69983 185.54 -1.22017 191.68 0.379827C197.82 1.97983 202.82 8.27983 201.68 14.5398C201.02 18.2198 198.46 21.5398 198.61 25.2698C198.71 27.8198 200.06 30.1198 201.14 32.4298C202.22 34.7398 203.04 37.4298 202.14 39.7998C201.24 41.9998 199.02 43.3798 197.82 45.4298C196.82 47.0898 196.61 49.0798 195.99 50.9098C193.67 57.6998 185.67 61.4998 178.6 60.3098C171.53 59.1198 165.6 53.7998 162.31 47.4498C159.02 41.0998 157.87 33.8298 157.48 26.6698" fill="#263238"/>
<path d="M157.76 19.8398L159.17 76.3898L184.54 74.0498C184.11 67.1698 183.8 59.9198 183.8 59.9198C183.8 59.9198 192.56 57.9198 193.65 46.1898C194.21 40.1898 193.24 30.3998 192.22 22.5998C192.018 21.051 191.504 19.559 190.711 18.2134C189.918 16.8677 188.861 15.6961 187.604 14.7688C186.347 13.8415 184.916 13.1776 183.396 12.8169C181.877 12.4562 180.3 12.4062 178.76 12.6698" fill="#B78876"/>
<path d="M183.76 59.7701C178.308 60.196 172.845 59.0985 167.98 56.6001C167.98 56.6001 172.36 64.3801 183.86 62.5501L183.76 59.7701Z" fill="#AA6550"/>
<path d="M175.37 24.3502C175.24 24.7902 173.63 24.6902 171.78 25.0402C169.93 25.3902 168.44 26.0402 168.16 25.6202C168.04 25.4402 168.28 25.0202 168.86 24.5602C169.639 23.9827 170.544 23.5988 171.5 23.4402C172.448 23.2602 173.426 23.3117 174.35 23.5902C175.06 23.8202 175.42 24.1402 175.37 24.3502Z" fill="#263238"/>
<path d="M188.89 23.2499C188.63 23.6299 187.51 23.3199 186.18 23.3899C184.85 23.4599 183.76 23.7899 183.48 23.3899C183.35 23.2099 183.48 22.8399 183.97 22.4599C184.597 21.9994 185.352 21.7444 186.13 21.7299C186.907 21.6882 187.678 21.8949 188.33 22.3199C188.82 22.6999 189 23.0599 188.89 23.2499Z" fill="#263238"/>
<path d="M176.22 37.38C176.22 37.463 176.195 37.5442 176.149 37.6133C176.103 37.6824 176.037 37.7362 175.961 37.768C175.884 37.7998 175.8 37.8081 175.718 37.7919C175.637 37.7757 175.562 37.7357 175.503 37.6769C175.444 37.6182 175.404 37.5434 175.388 37.4619C175.372 37.3804 175.38 37.296 175.412 37.2192C175.444 37.1425 175.498 37.0769 175.567 37.0307C175.636 36.9846 175.717 36.96 175.8 36.96C175.911 36.96 176.018 37.0042 176.097 37.083C176.176 37.1617 176.22 37.2686 176.22 37.38Z" fill="#AA6550"/>
<path d="M188.2 35.3099C188.198 35.3925 188.172 35.4727 188.124 35.5404C188.077 35.6082 188.011 35.6605 187.934 35.6907C187.857 35.721 187.773 35.7279 187.692 35.7106C187.611 35.6932 187.537 35.6525 187.48 35.5934C187.422 35.5342 187.383 35.4594 187.367 35.3782C187.352 35.297 187.361 35.2131 187.393 35.1369C187.425 35.0608 187.479 34.9958 187.548 34.95C187.617 34.9043 187.697 34.8799 187.78 34.8799C187.836 34.8799 187.891 34.8911 187.943 34.9128C187.995 34.9345 188.041 34.9664 188.081 35.0064C188.12 35.0465 188.15 35.094 188.171 35.1461C188.191 35.1982 188.201 35.2539 188.2 35.3099Z" fill="#AA6550"/>
<path d="M190.54 36.4097C190.54 36.4928 190.515 36.574 190.469 36.6431C190.423 36.7122 190.357 36.766 190.281 36.7978C190.204 36.8296 190.119 36.8379 190.038 36.8217C189.957 36.8055 189.882 36.7655 189.823 36.7067C189.764 36.648 189.724 36.5732 189.708 36.4917C189.692 36.4102 189.7 36.3258 189.732 36.249C189.764 36.1723 189.818 36.1067 189.887 36.0605C189.956 36.0144 190.037 35.9897 190.12 35.9897C190.231 35.9897 190.338 36.034 190.417 36.1128C190.496 36.1915 190.54 36.2984 190.54 36.4097Z" fill="#AA6550"/>
<path d="M191.26 34.5998C191.262 34.6852 191.239 34.7693 191.192 34.8414C191.146 34.9134 191.08 34.97 191.002 35.0041C190.923 35.0382 190.837 35.0482 190.752 35.0327C190.668 35.0173 190.591 34.9771 190.53 34.9174C190.469 34.8577 190.427 34.7811 190.409 34.6974C190.392 34.6138 190.4 34.5268 190.432 34.4476C190.464 34.3685 190.519 34.3007 190.59 34.253C190.661 34.2053 190.745 34.1798 190.83 34.1798C190.886 34.1785 190.942 34.1884 190.994 34.2089C191.046 34.2294 191.093 34.2601 191.134 34.2992C191.174 34.3384 191.205 34.3851 191.227 34.4367C191.249 34.4884 191.26 34.5438 191.26 34.5998Z" fill="#AA6550"/>
<path d="M174.28 39.2501C174.281 39.3061 174.271 39.3618 174.251 39.4139C174.23 39.466 174.2 39.5135 174.161 39.5535C174.121 39.5936 174.075 39.6254 174.023 39.6472C173.971 39.6689 173.916 39.6801 173.86 39.6801C173.758 39.6645 173.666 39.613 173.599 39.5351C173.532 39.4571 173.495 39.3578 173.495 39.2551C173.495 39.1524 173.532 39.053 173.599 38.9751C173.666 38.8971 173.758 38.8457 173.86 38.8301C173.971 38.8301 174.078 38.8743 174.157 38.9531C174.236 39.0319 174.28 39.1387 174.28 39.2501Z" fill="#AA6550"/>
<path d="M172.7 37.5998C172.702 37.6852 172.678 37.7693 172.632 37.8414C172.586 37.9134 172.52 37.97 172.442 38.0041C172.363 38.0382 172.276 38.0482 172.192 38.0327C172.108 38.0173 172.031 37.9771 171.97 37.9174C171.908 37.8577 171.867 37.7811 171.849 37.6974C171.832 37.6138 171.84 37.5268 171.872 37.4476C171.904 37.3685 171.959 37.3007 172.03 37.253C172.101 37.2053 172.184 37.1798 172.27 37.1798C172.326 37.1785 172.382 37.1884 172.434 37.2089C172.486 37.2294 172.533 37.2601 172.573 37.2992C172.614 37.3384 172.645 37.3851 172.667 37.4367C172.689 37.4884 172.7 37.5438 172.7 37.5998Z" fill="#AA6550"/>
<path d="M178.17 10.8697C177.17 20.0797 170.6 31.4197 161.76 34.2197C153.37 32.2197 159.28 40.6797 159.35 47.2197C159.42 53.2897 162.65 57.4397 158.72 60.5297C155.47 61.3197 153.59 52.4197 151.18 49.9297C148.77 47.4397 146.46 44.3797 146.64 40.9297C146.72 39.3097 147.35 37.7597 147.44 36.1397C147.38 34.3454 147.115 32.5638 146.65 30.8297C146.049 26.8835 146.628 22.8478 148.312 19.2291C149.997 15.6105 152.713 12.5701 156.12 10.4897C159.586 8.51075 163.52 7.50085 167.511 7.56595C171.501 7.63105 175.401 8.76875 178.8 10.8597" fill="#263238"/>
<path d="M147.76 35.25C147.65 35.1565 147.552 35.0489 147.47 34.93C147.223 34.5904 147.043 34.2069 146.94 33.8C146.63 32.2711 146.867 30.6818 147.61 29.31C148.057 28.3429 148.681 27.4679 149.45 26.73C150.29 25.8441 151.222 25.0497 152.23 24.36C153.324 23.6205 154.511 23.0288 155.76 22.6C157.08 22.15 158.48 21.8 159.91 21.44C161.34 21.08 162.73 20.73 164.04 20.27C165.323 19.814 166.567 19.2555 167.76 18.6C171.1 16.8208 174.032 14.3653 176.37 11.39C176.71 10.97 176.95 10.62 177.12 10.39C177.203 10.268 177.293 10.1512 177.39 10.04C177.328 10.1751 177.251 10.3026 177.16 10.42C177.01 10.65 176.78 11.01 176.45 11.42C175.54 12.6475 174.519 13.789 173.4 14.83C171.736 16.395 169.877 17.7393 167.87 18.83C166.687 19.4653 165.457 20.0069 164.19 20.45C162.87 20.91 161.47 21.27 160.04 21.63C158.61 21.99 157.21 22.33 155.9 22.78C154.624 23.215 153.415 23.8277 152.31 24.6C151.315 25.2716 150.393 26.0458 149.56 26.91C148.818 27.6236 148.208 28.4633 147.76 29.39C147.018 30.7218 146.756 32.2684 147.02 33.77C147.158 34.3107 147.41 34.8155 147.76 35.25Z" fill="#455A64"/>
<path d="M177.35 10.0898C177.28 10.1978 177.2 10.2983 177.11 10.3898L176.38 11.1798C175.437 12.1352 174.435 13.0303 173.38 13.8598C171.867 15.0956 170.182 16.106 168.38 16.8598C167.284 17.2687 166.152 17.5766 165 17.7798C163.82 18.0098 162.58 18.1998 161.31 18.3898C158.938 18.6813 156.596 19.1765 154.31 19.8698C152.451 20.4775 150.724 21.4309 149.22 22.6798C148.201 23.5419 147.364 24.5994 146.76 25.7898C146.56 26.2098 146.41 26.5398 146.33 26.7898L146.19 27.1398C146.206 27.0168 146.236 26.8959 146.28 26.7798C146.379 26.4367 146.506 26.1023 146.66 25.7798C147.235 24.5646 148.055 23.4818 149.07 22.5998C150.574 21.3071 152.317 20.3219 154.2 19.6998C156.506 18.9833 158.872 18.4779 161.27 18.1898C162.54 17.9998 163.77 17.8098 164.95 17.5798C166.088 17.3831 167.205 17.0852 168.29 16.6898C170.089 15.9295 171.772 14.9195 173.29 13.6898C174.337 12.8786 175.338 12.0106 176.29 11.0898L177.06 10.3298L177.35 10.0898Z" fill="#455A64"/>
<path d="M190.3 0.00993929C190.3 0.0699393 189.3 0.0999393 187.76 0.509939C187.37 0.619939 186.96 0.739941 186.52 0.909941C186.08 1.07994 185.62 1.27994 185.14 1.48994C183.082 2.48986 181.269 3.93062 179.83 5.70994C179.51 6.12994 179.2 6.51994 178.95 6.91994C178.705 7.2783 178.485 7.65245 178.29 8.03994C177.54 9.44994 177.29 10.4199 177.22 10.3999C177.256 10.1677 177.317 9.93982 177.4 9.71994C177.471 9.45702 177.561 9.19966 177.67 8.94994C177.972 8.20401 178.337 7.48481 178.76 6.79994C179.028 6.37138 179.318 5.95745 179.63 5.55994C180.354 4.65237 181.175 3.82739 182.08 3.09994C182.995 2.38553 183.984 1.77197 185.03 1.26994C185.49 1.05518 185.96 0.864916 186.44 0.699938C186.88 0.539938 187.31 0.429939 187.7 0.329939C188.09 0.229939 188.46 0.17994 188.77 0.11994C189.041 0.0699994 189.315 0.0399191 189.59 0.0299397C189.825 -0.00149702 190.063 -0.00820071 190.3 0.00993929Z" fill="#455A64"/>
<path d="M198.51 44.0297C198.51 44.0297 198.51 44.0297 198.58 43.9297L198.83 43.6497C199.04 43.3997 199.36 43.0397 199.72 42.5297C200.17 41.9279 200.508 41.2506 200.72 40.5297C200.845 40.0844 200.879 39.6185 200.82 39.1597C200.749 38.6455 200.572 38.1517 200.3 37.7097C199.609 36.7162 198.847 35.7738 198.02 34.8897C197.143 33.7913 196.41 32.5848 195.84 31.2997C195.209 29.881 194.784 28.379 194.58 26.8397C194.415 25.1785 194.371 23.5073 194.45 21.8397C194.536 20.1998 194.385 18.5561 194 16.9597C193.601 15.5648 192.903 14.2734 191.955 13.1752C191.007 12.0769 189.832 11.1981 188.51 10.5997C187.409 10.1112 186.224 9.83956 185.02 9.79971C183.266 9.72674 181.523 10.1091 179.96 10.9097C179.538 11.1273 179.131 11.3711 178.74 11.6397L178.43 11.8597L178.32 11.9297C178.796 11.4877 179.331 11.1142 179.91 10.8197C181.478 9.97555 183.24 9.55827 185.02 9.60971C186.253 9.63759 187.469 9.90594 188.6 10.3997C189.963 11.0032 191.178 11.8965 192.161 13.0173C193.143 14.1381 193.87 15.4595 194.29 16.8897C194.68 18.526 194.835 20.2096 194.75 21.8897C194.673 23.5338 194.714 25.1813 194.87 26.8197C195.066 28.338 195.48 29.82 196.1 31.2197C196.652 32.4887 197.365 33.6818 198.22 34.7697C199.041 35.6595 199.799 36.6051 200.49 37.5997C200.771 38.0675 200.951 38.5885 201.02 39.1297C201.075 39.6102 201.031 40.097 200.89 40.5597C200.653 41.2856 200.287 41.9631 199.81 42.5597C199.42 43.0497 199.09 43.4097 198.87 43.6397L198.6 43.9097L198.51 44.0297Z" fill="#455A64"/>
<path d="M148.32 35.8997C148.32 35.8997 148.27 35.8997 148.19 35.8997L147.84 35.7097C147.394 35.4537 146.97 35.1628 146.57 34.8397C145.09 33.6349 143.958 32.0574 143.29 30.2697C142.524 28.141 142.46 25.8231 143.105 23.655C143.751 21.4869 145.074 19.5823 146.88 18.2197C148.319 17.156 149.939 16.36 151.66 15.8697C153.373 15.3661 155.132 15.0311 156.91 14.8697C158.62 14.7097 160.27 14.6297 161.84 14.5197C163.328 14.4329 164.81 14.266 166.28 14.0197C167.556 13.8086 168.809 13.4737 170.02 13.0197C171.783 12.3613 173.388 11.3392 174.73 10.0197C175.093 9.65572 175.427 9.26458 175.73 8.84974L175.96 8.52974C176.02 8.45974 176.04 8.41974 176.05 8.42974C175.712 9.03278 175.298 9.59055 174.82 10.0897C173.486 11.4477 171.872 12.4987 170.09 13.1697C168.871 13.6206 167.612 13.9554 166.33 14.1697C164.854 14.4274 163.365 14.601 161.87 14.6897C158.73 14.9397 155.23 14.9697 151.75 16.0097C150.057 16.4818 148.465 17.2577 147.05 18.2997C145.279 19.6303 143.978 21.4906 143.336 23.6107C142.694 25.7308 142.745 28.0002 143.48 30.0897C144.124 31.8558 145.216 33.4239 146.65 34.6397C147.036 34.9701 147.443 35.2742 147.87 35.5497L148.21 35.7497L148.32 35.8997Z" fill="#263238"/>
<path d="M189.87 31.1599C189.895 31.5451 189.767 31.9246 189.515 32.2165C189.262 32.5084 188.905 32.6892 188.52 32.7199C188.333 32.745 188.143 32.7324 187.961 32.6827C187.779 32.6331 187.609 32.5475 187.461 32.4309C187.313 32.3144 187.189 32.1693 187.098 32.0042C187.007 31.8391 186.95 31.6574 186.93 31.4699C186.905 31.0852 187.031 30.706 187.281 30.4127C187.531 30.1195 187.886 29.9355 188.27 29.8999C188.458 29.8762 188.649 29.8901 188.831 29.9408C189.014 29.9915 189.185 30.078 189.334 30.1952C189.482 30.3124 189.607 30.4581 189.699 30.6237C189.791 30.7893 189.849 30.9716 189.87 31.1599Z" fill="#263238"/>
<path d="M189.67 28.8498C189.5 29.0498 188.33 28.2798 186.74 28.3698C185.15 28.4598 184.03 29.3698 183.84 29.1298C183.65 28.8898 183.92 28.6898 184.41 28.2898C185.074 27.7773 185.882 27.4837 186.72 27.4498C187.546 27.4002 188.367 27.6176 189.06 28.0698C189.57 28.4198 189.76 28.7598 189.67 28.8498Z" fill="#263238"/>
<path d="M174.17 32.5998C174.192 32.9844 174.064 33.3625 173.812 33.6538C173.559 33.9451 173.204 34.1266 172.82 34.1598C172.633 34.1864 172.442 34.1748 172.26 34.1257C172.077 34.0766 171.907 33.9911 171.758 33.8743C171.609 33.7575 171.486 33.6119 171.395 33.4461C171.305 33.2803 171.248 33.0979 171.23 32.9098C171.205 32.5252 171.331 32.1459 171.581 31.8527C171.831 31.5595 172.186 31.3755 172.57 31.3398C172.758 31.3161 172.949 31.33 173.131 31.3807C173.314 31.4314 173.485 31.5179 173.634 31.6352C173.782 31.7524 173.906 31.898 173.999 32.0637C174.091 32.2293 174.149 32.4115 174.17 32.5998Z" fill="#263238"/>
<path d="M174.13 29.7101C173.96 29.9101 172.8 29.1401 171.21 29.2301C169.62 29.3201 168.49 30.1701 168.31 29.9901C168.13 29.8101 168.39 29.5501 168.88 29.1501C169.542 28.6382 170.344 28.3415 171.18 28.3001C172.009 28.258 172.83 28.4747 173.53 28.9201C174.03 29.2701 174.22 29.6001 174.13 29.7101Z" fill="#263238"/>
<path d="M180.45 42.0499C181.277 41.7517 182.136 41.5503 183.01 41.4499C183.41 41.3899 183.79 41.2899 183.85 41.0099C183.859 40.588 183.741 40.1732 183.51 39.8199C183.08 38.8199 182.62 37.8199 182.14 36.8199C180.24 32.4999 178.84 28.9399 179.02 28.8199C179.2 28.6999 180.87 32.1799 182.78 36.4999C183.24 37.5599 183.67 38.5799 184.09 39.4999C184.372 39.9752 184.478 40.5344 184.39 41.0799C184.34 41.2275 184.256 41.3614 184.145 41.4708C184.034 41.5802 183.898 41.6621 183.75 41.7099C183.53 41.7823 183.301 41.826 183.07 41.8399C182.21 42.0265 181.329 42.0971 180.45 42.0499Z" fill="#263238"/>
<path d="M179.98 45.9302C179.657 45.5643 179.246 45.2869 178.786 45.1241C178.325 44.9614 177.831 44.9187 177.35 45.0002C177.002 45.051 176.668 45.171 176.368 45.353C176.067 45.5351 175.806 45.7755 175.6 46.0602C175.405 46.3403 175.3 46.6737 175.3 47.0152C175.3 47.3567 175.405 47.69 175.6 47.9702C175.871 48.2412 176.216 48.4251 176.592 48.4981C176.968 48.5712 177.357 48.5301 177.71 48.3802C178.46 48.0819 179.141 47.6326 179.71 47.0602C179.884 46.9271 180.031 46.7605 180.14 46.5702C180.199 46.4814 180.231 46.377 180.231 46.2702C180.231 46.1634 180.199 46.059 180.14 45.9702" fill="#AA6550"/>
<path d="M175.82 43.3999C176.08 43.3999 176.18 45.0999 177.72 46.2499C179.26 47.3999 181.09 47.1099 181.12 47.3499C181.15 47.5899 180.73 47.7099 179.95 47.7699C178.939 47.8392 177.937 47.5488 177.12 46.9499C176.348 46.3814 175.819 45.5419 175.64 44.5999C175.54 43.8399 175.76 43.3999 175.82 43.3999Z" fill="#263238"/>
<path d="M160.27 34.2798C160.08 34.1898 152.67 31.6698 152.59 39.3398C152.51 47.0098 160.22 45.4998 160.23 45.2798C160.24 45.0598 160.27 34.2798 160.27 34.2798Z" fill="#B78876"/>
<path d="M157.92 42.3497C157.92 42.3497 157.79 42.4497 157.56 42.5497C157.239 42.6777 156.881 42.6777 156.56 42.5497C156.068 42.2266 155.671 41.7786 155.409 41.2514C155.147 40.7242 155.03 40.137 155.07 39.5497C155.054 38.8917 155.187 38.2387 155.46 37.6397C155.533 37.4045 155.662 37.1905 155.837 37.0163C156.011 36.8421 156.225 36.7129 156.46 36.6397C156.613 36.5995 156.775 36.6146 156.918 36.6823C157.06 36.75 157.174 36.866 157.24 37.0097C157.34 37.2197 157.29 37.3797 157.33 37.3897C157.37 37.3997 157.5 37.2597 157.44 36.9497C157.401 36.7562 157.295 36.5827 157.14 36.4597C156.932 36.3 156.67 36.2282 156.41 36.2597C156.095 36.3183 155.8 36.4565 155.553 36.6613C155.306 36.8661 155.116 37.1306 155 37.4297C154.667 38.0933 154.499 38.8274 154.51 39.5697C154.51 41.1097 155.32 42.5697 156.42 42.8997C156.627 42.9579 156.843 42.9711 157.056 42.9383C157.268 42.9055 157.471 42.8276 157.65 42.7097C157.91 42.5397 157.95 42.3697 157.92 42.3497Z" fill="#AA6550"/>
<path d="M151.59 49.0899C150.046 47.7002 148.903 45.9217 148.28 43.9399C147.495 42.0155 147.24 39.9163 147.54 37.8599C147.761 39.8612 148.173 41.8368 148.77 43.7599C149.537 45.6226 150.482 47.4074 151.59 49.0899Z" fill="#FF725E"/>
<path d="M156.32 72.3101C156.32 72.3101 139.2 84.1501 138.47 96.9201C137.74 109.69 148.14 147.43 148.14 147.43C148.14 147.43 142.66 164.95 145.22 168.6C147.78 172.25 162.73 167.87 173.68 170.42C184.63 172.97 191.56 175.9 194.84 172.61C198.12 169.32 199.22 167.14 197.76 154C196.3 140.86 201.69 124.12 201.69 112C201.69 99.5901 188.04 76.7301 188.04 76.7301L186.35 70.9701C186.35 70.9701 163.16 63.4301 157.68 64.1601L156.32 72.3101Z" fill="#FF725E"/>
<path d="M138.44 95.4397C138.25 96.5497 138.44 146.72 138.44 146.72L134.76 153.6C134.41 156 135.68 158.49 137.54 161.02L157.29 163.83L163.92 155.37L157.98 145.92L168.98 104.1C168.98 104.1 173.07 95.6397 167.35 88.0097C161.63 80.3797 141.38 78.0097 138.44 95.4397Z" fill="#FF725E"/>
<path d="M165.47 92.2401C165.38 92.2901 164.77 90.9501 163.24 89.2401C161.263 86.9413 158.688 85.2349 155.8 84.31C152.912 83.3851 149.825 83.2778 146.88 84.0001C144.61 84.5501 143.34 85.2801 143.3 85.1901C143.559 84.9646 143.853 84.7823 144.17 84.6501C145.005 84.2328 145.88 83.8979 146.78 83.6501C149.787 82.8017 152.978 82.8566 155.954 83.8079C158.931 84.7591 161.562 86.5648 163.52 89.0001C164.111 89.7247 164.63 90.505 165.07 91.3301C165.246 91.6126 165.381 91.9191 165.47 92.2401Z" fill="#263238"/>
<path d="M140.38 143.6C140.346 143.723 140.296 143.841 140.23 143.95L139.74 144.9C139.27 145.79 138.62 146.98 137.82 148.47C137.02 149.96 135.94 151.85 134.88 153.92C134.57 154.92 135.1 156.23 135.63 157.39C136.242 158.617 136.955 159.791 137.76 160.9L137.6 160.8L150.43 162.6L155.43 163.32H155.28C157.15 162.55 159.01 162.16 160.6 161.32C160.782 161.226 160.953 161.112 161.11 160.98C161.27 160.84 161.43 160.67 161.59 160.51C161.9 160.2 162.2 159.88 162.48 159.56C163.032 158.977 163.497 158.317 163.86 157.6C164.171 156.893 164.302 156.12 164.24 155.35C164.152 154.623 163.932 153.918 163.59 153.27C162.927 152.106 162.095 151.048 161.12 150.13C159.623 148.869 158.357 147.356 157.38 145.66C157.145 145.186 156.977 144.681 156.88 144.16C156.851 143.978 156.851 143.792 156.88 143.61C157.024 144.305 157.259 144.977 157.58 145.61C158.61 147.246 159.9 148.701 161.4 149.92C162.416 150.847 163.286 151.922 163.98 153.11C164.364 153.799 164.609 154.557 164.7 155.34C164.789 156.183 164.654 157.035 164.31 157.81C163.95 158.613 163.468 159.355 162.88 160.01C162.59 160.34 162.29 160.67 161.97 161.01L161.49 161.5C161.299 161.66 161.091 161.797 160.87 161.91C159.2 162.78 157.3 163.18 155.55 163.91H155.47H155.4L150.4 163.2L137.55 161.35H137.44V161.27C136.635 160.117 135.926 158.899 135.32 157.63C135.04 157.029 134.806 156.407 134.62 155.77C134.44 155.136 134.44 154.464 134.62 153.83C135.76 151.68 136.83 149.91 137.69 148.38C138.55 146.85 139.22 145.74 139.69 144.88C139.91 144.51 140.09 144.2 140.24 143.96C140.272 143.835 140.319 143.714 140.38 143.6Z" fill="#263238"/>
<path d="M155.39 135.13C155.963 135.555 156.452 136.084 156.83 136.69C158.854 139.507 159.869 142.925 159.71 146.39C159.714 147.101 159.595 147.808 159.36 148.48C159.431 146.122 159.172 143.766 158.59 141.48C157.836 139.22 156.758 137.081 155.39 135.13Z" fill="#263238"/>
<path d="M167.56 106.11C167.557 106.597 167.504 107.083 167.4 107.56C167.27 108.49 167.05 109.83 166.75 111.48C166.16 114.78 165.24 119.32 164.03 124.29C162.82 129.26 161.56 133.72 160.57 136.92C160.08 138.52 159.66 139.81 159.35 140.69C159.219 141.16 159.042 141.615 158.82 142.05C158.892 141.569 159.003 141.094 159.15 140.63L160.22 136.81C161.11 133.59 162.32 129.13 163.53 124.16C164.74 119.19 165.71 114.68 166.39 111.41C166.72 109.84 166.99 108.54 167.2 107.52C167.274 107.039 167.395 106.567 167.56 106.11Z" fill="#263238"/>
<path d="M188.04 76.7701C187.954 76.8548 187.904 76.9694 187.9 77.0901C187.906 77.4309 187.967 77.7684 188.08 78.0901C188.22 78.5401 188.42 79.0901 188.64 79.7301C188.75 80.0501 188.87 80.4001 188.97 80.7801C189.018 80.9845 189.055 81.1915 189.08 81.4001C189.105 81.5324 189.094 81.669 189.049 81.7957C189.003 81.9224 188.924 82.0345 188.82 82.1201L188.67 82.2201L188.6 82.0301C186.939 78.1564 184.931 74.4412 182.6 70.9301H183.03C181.624 74.2194 180.455 77.6046 179.53 81.0601C179.21 82.2401 178.93 83.4101 178.69 84.5201L178.62 84.8401L178.33 84.7001C172.886 82.1057 167.588 79.2147 162.46 76.0401C160.53 74.8401 159 73.8301 157.96 73.1201L156.77 72.2901C156.5 72.1001 156.37 71.9901 156.38 71.9701C156.535 72.0334 156.683 72.1139 156.82 72.2101L158.06 72.9601C159.13 73.6201 160.69 74.5801 162.64 75.7401C166.55 78.0701 172.09 81.1601 178.55 84.2301L178.18 84.4101C178.42 83.2901 178.71 82.1101 179.02 80.9301C179.952 77.4497 181.142 74.0436 182.58 70.7401L182.77 70.3101L183.01 70.7101C185.318 74.2594 187.271 78.0276 188.84 81.9601L188.63 81.8801C188.72 81.8801 188.75 81.6301 188.74 81.4501C188.725 81.2579 188.695 81.0673 188.65 80.8801C188.57 80.5101 188.46 80.1601 188.36 79.8301C188.16 79.1801 187.99 78.6301 187.88 78.1601C187.773 77.8073 187.736 77.4371 187.77 77.0701C187.87 76.8001 188.05 76.7501 188.04 76.7701Z" fill="#263238"/>
<path d="M182.89 71.1802C182.943 71.2583 182.986 71.3422 183.02 71.4302L183.36 72.1502L184.63 74.9702C185.71 77.4302 187.26 80.9702 188.96 85.4902C190.994 90.7426 192.564 96.1634 193.65 101.69C194.262 104.966 194.597 108.288 194.65 111.62C194.675 115.197 194.4 118.769 193.83 122.3C193.3 125.93 192.64 129.45 192.23 132.86C191.778 136.133 191.671 139.445 191.91 142.74C192.17 145.89 192.78 148.84 193.26 151.62C193.76 154.2 194.061 156.814 194.16 159.44C194.203 161.618 193.948 163.792 193.4 165.9C192.969 167.491 192.294 169.005 191.4 170.39C190.831 171.258 190.16 172.053 189.4 172.76C189.13 172.99 188.91 173.15 188.77 173.27C188.705 173.331 188.631 173.382 188.55 173.42C189.581 172.499 190.483 171.443 191.23 170.28C193.106 166.991 193.991 163.23 193.78 159.45C193.641 156.846 193.306 154.255 192.78 151.7C192.28 148.93 191.65 145.97 191.37 142.79C191.118 139.456 191.219 136.104 191.67 132.79C192.07 129.35 192.73 125.79 193.26 122.22C193.824 118.715 194.098 115.17 194.08 111.62C194.026 108.314 193.692 105.019 193.08 101.77C192.057 96.2619 190.561 90.8519 188.61 85.6002C186.97 81.1002 185.46 77.5202 184.44 75.0402C183.94 73.8302 183.55 72.8702 183.27 72.1802L182.97 71.4402C182.932 71.3576 182.905 71.2701 182.89 71.1802Z" fill="#263238"/>
<g opacity="0.37">
<path d="M166.31 144.6C164.88 134.53 169.65 122.9 166.2 113.34C164.14 121.34 163.2 128.41 160.77 135.12C159.56 138.52 159.3 141.79 159.18 141.37C158.73 139.78 159.4 148.14 159.4 148.14C160.74 149.399 162.005 150.734 163.19 152.14C163.794 153.349 164.073 154.694 164.001 156.044C163.93 157.394 163.509 158.702 162.78 159.84C161.39 161.84 156.9 162.5 154.69 163.53L153.69 169.1C160.09 170.77 167.49 164.2 168.33 157.63C168.86 153.29 166.93 149 166.31 144.6Z" fill="black"/>
</g>
<g opacity="0.37">
<path d="M175.97 83.37C176.83 83.87 177.7 84.37 178.57 84.85C179.351 80.0996 180.649 75.4487 182.44 70.98C184.91 74.41 187.51 78.26 188.94 82.24C188.94 81.54 188 77.03 188.04 76.77C188.947 77.8763 189.506 79.2259 189.648 80.6491C189.791 82.0724 189.51 83.506 188.84 84.77C186.306 82.447 184.38 79.539 183.23 76.3L181.91 85.3C181.73 86.51 181.36 87.96 180.18 88.3C179.393 88.427 178.587 88.2558 177.92 87.82C171.466 84.5758 165.665 80.1687 160.81 74.82L175.97 83.37Z" fill="black"/>
</g>
<path d="M197.97 157.2C198.074 157.48 198.141 157.773 198.17 158.07C198.27 158.63 198.4 159.44 198.51 160.46C198.896 163.141 198.677 165.875 197.87 168.46C197.384 169.884 196.588 171.181 195.54 172.26C194.664 173.124 193.604 173.781 192.44 174.18C191.661 174.441 190.84 174.553 190.02 174.51C189.718 174.508 189.419 174.447 189.14 174.33C190.222 174.358 191.299 174.189 192.32 173.83C193.407 173.409 194.389 172.758 195.2 171.92C196.174 170.877 196.917 169.64 197.38 168.29C198.15 165.777 198.411 163.136 198.15 160.52C198.019 159.418 197.959 158.31 197.97 157.2Z" fill="#263238"/>
<path d="M133.53 219.49C133.53 219.49 122.92 221.26 116.9 228.69C110.88 236.12 108.76 241.6 108.76 241.6L118.43 243.96C118.43 243.96 118.63 234.32 123.58 229.01C128.53 223.7 134.67 221.67 137.02 225.83C139.37 229.99 140.91 244.28 137.02 248.49L145.76 250.6C145.76 250.6 147.67 220.2 133.53 219.49Z" fill="#455A64"/>
<path d="M136.44 199.2C136.44 199.2 127.44 216.93 126.62 219.11C125.8 221.29 124.49 230.33 124.49 230.33L126.12 232.99C126.12 232.99 127.31 236.08 130.9 234.61C131.31 234.44 132.75 236.13 135.66 235.11C136.924 234.687 138.209 234.33 139.51 234.04L142.71 227.68L143.79 231.86C146.074 228.008 147.215 223.586 147.08 219.11C146.8 211.75 147.08 199.2 147.08 199.2H136.44Z" fill="#B78876"/>
<path d="M137.38 223.88C137.314 224.486 137.123 225.071 136.82 225.6C136.38 226.6 135.57 227.95 135.01 229.5C134.471 230.796 134.404 232.24 134.82 233.58C135.043 234.119 135.325 234.632 135.66 235.11C135.66 235.16 134.96 234.79 134.47 233.72C134.201 233.088 134.064 232.407 134.07 231.72C134.078 230.896 134.231 230.081 134.52 229.31C135.077 227.96 135.746 226.658 136.52 225.42C136.765 224.885 137.053 224.37 137.38 223.88Z" fill="#AA6550"/>
<path d="M132.76 222.68C131.611 224.416 130.849 226.379 130.528 228.437C130.207 230.494 130.334 232.596 130.9 234.6C130.539 234.083 130.299 233.492 130.2 232.87C129.841 231.393 129.777 229.861 130.01 228.36C130.237 226.854 130.764 225.408 131.56 224.11C131.853 223.553 132.263 223.065 132.76 222.68Z" fill="#AA6550"/>
<path d="M144.7 221.89C144.58 224.56 143.517 227.1 141.7 229.06C141.58 228.97 142.53 227.51 143.34 225.54C144.15 223.57 144.55 221.86 144.7 221.89Z" fill="#AA6550"/>
<path d="M126.12 232.99C125.668 230.24 126.165 227.419 127.53 224.99C127.67 225.05 127.03 226.77 126.65 228.99C126.27 231.21 126.27 232.98 126.12 232.99Z" fill="#AA6550"/>
<path d="M83.76 240.18C83.8823 239.605 84.1189 239.06 84.4558 238.578C84.7927 238.097 85.2229 237.687 85.7209 237.375C86.219 237.062 86.7747 236.853 87.3552 236.76C87.9356 236.666 88.529 236.69 89.1 236.83L108.76 241.6L166.05 255.6C167.175 255.873 168.146 256.578 168.755 257.563C169.363 258.548 169.559 259.732 169.3 260.86L158.3 308.86C158.171 309.423 157.933 309.955 157.598 310.426C157.264 310.897 156.839 311.297 156.35 311.604C155.86 311.91 155.315 312.117 154.745 312.213C154.176 312.308 153.593 312.29 153.03 312.16L76.48 294.51C75.3528 294.25 74.3735 293.556 73.754 292.579C73.1346 291.602 72.9247 290.421 73.17 289.29L83.76 240.18Z" fill="#455A64"/>
<path d="M168.05 263.66C167.761 263.619 167.477 263.552 167.2 263.46L164.77 262.77L155.85 260.19C148.31 258.03 137.85 255.19 126.28 252.19C114.71 249.19 104.12 246.85 96.4599 245.19L87.3899 243.19L84.92 242.65C84.6303 242.599 84.3459 242.522 84.0699 242.42C84.3624 242.439 84.6531 242.48 84.9399 242.54L87.4299 242.99C89.5799 243.39 92.6999 243.99 96.5399 244.79C104.22 246.37 114.8 248.73 126.41 251.65C138.02 254.57 148.41 257.53 155.95 259.78C159.71 260.91 162.74 261.85 164.83 262.52L167.23 263.31C167.511 263.408 167.785 263.525 168.05 263.66Z" fill="#263238"/>
<path d="M137.42 161.22L133.71 205.48H146.8L154.57 163.76L137.42 161.22Z" fill="#B78876"/>
<path d="M167.91 102.44C167.564 102.625 167.198 102.773 166.82 102.88C166.11 103.14 165.06 103.45 163.75 103.79C160.331 104.655 156.833 105.171 153.31 105.33C149.788 105.487 146.26 105.283 142.78 104.72C141.44 104.5 140.37 104.28 139.64 104.08C139.253 104.017 138.876 103.903 138.52 103.74C138.52 103.65 140.17 104.01 142.83 104.35C149.773 105.272 156.825 104.961 163.66 103.43C166.29 102.85 167.88 102.36 167.91 102.44Z" fill="#FAFAFA"/>
<path d="M162.64 126.6C162.328 126.666 162.009 126.693 161.69 126.68C161.08 126.68 160.19 126.68 159.1 126.68C156.92 126.68 153.91 126.53 150.59 126.21C147.27 125.89 144.29 125.45 142.14 125.06C141.07 124.86 140.2 124.69 139.61 124.55C139.295 124.507 138.988 124.416 138.7 124.28C139.874 124.348 141.042 124.485 142.2 124.69C144.36 124.99 147.34 125.37 150.64 125.69C153.94 126.01 156.94 126.2 159.12 126.32C160.298 126.337 161.474 126.431 162.64 126.6Z" fill="#FAFAFA"/>
<path d="M160.47 150.87C160.204 151.003 159.922 151.101 159.63 151.16C158.844 151.377 158.046 151.551 157.24 151.68C154.598 152.126 151.912 152.254 149.24 152.06C146.551 151.856 143.896 151.332 141.33 150.5C140.33 150.17 139.58 149.87 139.05 149.63C138.52 149.39 138.24 149.25 138.26 149.21C138.28 149.17 139.48 149.59 141.44 150.15C144.003 150.863 146.628 151.329 149.28 151.54C151.948 151.727 154.627 151.653 157.28 151.32C159.21 151.06 160.45 150.78 160.47 150.87Z" fill="#FAFAFA"/>
<path d="M199.42 132.68C198.978 132.959 198.513 133.2 198.03 133.4C197.13 133.85 195.78 134.4 194.1 135.07C192.135 135.82 190.132 136.467 188.1 137.01C183.094 138.355 177.942 139.08 172.76 139.17C170.648 139.216 168.535 139.153 166.43 138.98C164.63 138.82 163.18 138.64 162.19 138.46C161.671 138.405 161.158 138.298 160.66 138.14C161.182 138.139 161.704 138.179 162.22 138.26C163.22 138.38 164.66 138.5 166.45 138.61C168.24 138.72 170.38 138.75 172.75 138.69C175.316 138.603 177.876 138.386 180.42 138.04C183.13 137.65 185.68 137.12 187.98 136.55C190.28 135.98 192.32 135.33 193.98 134.72C195.64 134.11 196.98 133.61 197.98 133.22C198.441 132.994 198.923 132.813 199.42 132.68Z" fill="#FAFAFA"/>
<path d="M199.19 102.74C198.79 102.937 198.371 103.095 197.94 103.21C197.13 103.48 195.94 103.85 194.47 104.29C191.53 105.17 187.47 106.29 182.91 107.45C178.35 108.61 174.23 109.5 171.22 110.11C169.72 110.42 168.5 110.65 167.65 110.79C167.217 110.892 166.775 110.952 166.33 110.97C166.741 110.796 167.17 110.668 167.61 110.59L171.14 109.75C174.14 109.05 178.25 108.08 182.78 106.94C187.31 105.8 191.41 104.72 194.37 103.94L197.88 103.02C198.305 102.877 198.744 102.783 199.19 102.74Z" fill="#FAFAFA"/>
<path d="M191.97 86.9101C191.649 87.037 191.313 87.1211 190.97 87.1601L188.19 87.6501C185.84 88.0601 182.59 88.6501 179.02 89.3401C175.45 90.0301 172.24 90.7401 169.91 91.2501L167.14 91.8401C166.815 91.9356 166.479 91.9894 166.14 92.0001C166.455 91.8376 166.792 91.7198 167.14 91.6501C167.78 91.4501 168.71 91.1901 169.87 90.8901C172.18 90.2901 175.4 89.5301 178.97 88.8201C182.54 88.1101 185.81 87.6001 188.18 87.2901C189.36 87.1301 190.32 87.0201 190.99 86.9601C191.313 86.9043 191.643 86.8875 191.97 86.9101Z" fill="#FAFAFA"/>
<path d="M160.76 75.1997C160.85 75.3197 159.11 76.5997 157.25 78.4797C155.39 80.3597 154.12 82.0897 154 82.0097C154.688 80.5294 155.668 79.203 156.88 78.1097C157.967 76.8916 159.286 75.9024 160.76 75.1997Z" fill="#FAFAFA"/>
<path d="M179.01 76.3797C178.701 76.3791 178.395 76.3319 178.1 76.2397C177.52 76.1097 176.68 75.8997 175.66 75.6097C173.005 74.8399 170.406 73.891 167.88 72.7697C165.348 71.6573 162.892 70.3778 160.53 68.9397C159.62 68.3797 158.91 67.9397 158.42 67.5697C158.155 67.4098 157.913 67.2147 157.7 66.9897C158.73 67.4764 159.731 68.0206 160.7 68.6197C162.55 69.6197 165.13 70.9897 168.08 72.2897C171.03 73.5897 173.76 74.5897 175.76 75.2897C176.864 75.5891 177.949 75.9531 179.01 76.3797Z" fill="#FAFAFA"/>
<path d="M197.96 157.6C197.567 157.836 197.151 158.034 196.72 158.19C195.566 158.662 194.38 159.049 193.17 159.35C189.152 160.288 185.011 160.585 180.9 160.23C176.803 159.853 172.744 159.148 168.76 158.12C167.23 157.74 166 157.41 165.16 157.12C164.711 157.032 164.275 156.891 163.86 156.7C164.316 156.737 164.768 156.814 165.21 156.93L168.84 157.71C172.824 158.615 176.862 159.256 180.93 159.63C184.99 159.976 189.079 159.734 193.07 158.91C194.277 158.641 195.469 158.307 196.64 157.91C197.069 157.764 197.511 157.661 197.96 157.6Z" fill="#FAFAFA"/>
<path d="M148.56 44.9897C148.458 45.3462 148.299 45.6838 148.09 45.9897C147.597 46.8224 147.017 47.6001 146.36 48.3097C144.185 50.6923 141.335 52.3552 138.191 53.077C135.046 53.7988 131.757 53.5451 128.76 52.3497C127.859 52.003 126.997 51.5605 126.19 51.0297C125.876 50.8617 125.592 50.642 125.35 50.3797C126.499 50.9854 127.681 51.5262 128.89 51.9997C131.837 53.0684 135.03 53.2594 138.083 52.5494C141.136 51.8394 143.917 50.259 146.09 47.9997C146.964 47.0393 147.789 46.0346 148.56 44.9897Z" fill="#455A64"/>
<path d="M125.1 46.2299C125.389 46.0706 125.698 45.9528 126.02 45.8799C126.898 45.6755 127.8 45.5947 128.7 45.6399C130.027 45.7307 131.343 45.9449 132.63 46.2799C134.08 46.6099 135.63 47.0499 137.33 47.2799C138.886 47.5429 140.48 47.4782 142.01 47.0899C143.257 46.7438 144.432 46.1783 145.48 45.4199C146.416 44.6721 147.271 43.8274 148.03 42.8999C147.929 43.2158 147.766 43.5082 147.55 43.7599C147.031 44.511 146.408 45.1845 145.7 45.7599C144.644 46.5991 143.435 47.2241 142.14 47.5999C140.548 48.0387 138.879 48.124 137.25 47.8499C135.656 47.5723 134.078 47.2152 132.52 46.7799C131.261 46.4373 129.977 46.1932 128.68 46.0499C127.484 45.9609 126.281 46.0213 125.1 46.2299Z" fill="#455A64"/>
<path d="M42.02 356C43.5043 356.706 44.8304 357.706 45.9182 358.938C47.0061 360.17 47.8333 361.61 48.35 363.17C49.3682 366.3 49.6556 369.622 49.19 372.88C48.48 379.19 44.89 385.55 41.04 390.59C35.73 385.96 34.5 377.88 34.14 373.74C33.57 367.19 36.51 355.02 42.02 356Z" fill="#FF725E"/>
<path d="M47.2101 401C46.8477 399.198 46.9686 397.332 47.5604 395.592C48.1523 393.851 49.1941 392.298 50.5801 391.09C51.9806 389.91 53.6019 389.02 55.3496 388.473C57.0973 387.925 58.9365 387.73 60.7601 387.9C62.4501 388.03 64.2701 388.52 65.2401 389.9C65.6514 390.58 65.8747 391.357 65.887 392.151C65.8993 392.945 65.7002 393.728 65.3101 394.42C64.4974 395.791 63.3432 396.928 61.9601 397.72C57.3601 400.6 52.3801 402.55 47.1801 400.99" fill="#FF725E"/>
<path d="M40.4 420.33C40.4262 419.895 40.4898 419.464 40.59 419.04C40.76 418.13 40.97 416.95 41.23 415.54C41.825 411.64 43.0439 407.862 44.84 404.35C46.7063 400.85 49.4666 397.907 52.84 395.82C53.8724 395.209 54.9733 394.722 56.12 394.37C56.52 394.24 56.84 394.19 57.06 394.13C57.28 394.07 57.39 394.07 57.39 394.13C55.8664 394.647 54.3989 395.317 53.01 396.13C49.752 398.256 47.0829 401.169 45.25 404.6C43.4806 408.064 42.2338 411.771 41.55 415.6C41.23 417.07 40.97 418.26 40.76 419.08C40.6801 419.507 40.5595 419.926 40.4 420.33Z" fill="#263238"/>
<path d="M40.6001 365.46C40.6386 365.648 40.6587 365.838 40.6601 366.03C40.6601 366.45 40.7201 367.03 40.7601 367.65C40.8401 369.07 40.9201 371.11 41.0001 373.65C41.1601 378.65 41.2901 385.65 41.2601 393.39C41.2301 401.13 41.0401 408.09 40.8301 413.14C40.7301 415.67 40.6201 417.71 40.5401 419.14C40.5401 419.81 40.4601 420.35 40.4301 420.77C40.4238 420.958 40.4004 421.146 40.3601 421.33C40.3344 421.141 40.3344 420.949 40.3601 420.76C40.3601 420.34 40.3601 419.8 40.3601 419.14C40.3601 417.67 40.4401 415.64 40.5001 413.14C40.6301 408.14 40.7701 401.14 40.8001 393.4C40.8301 385.66 40.8001 378.72 40.6701 373.66C40.6701 371.18 40.6001 369.15 40.5801 367.66C40.5801 366.99 40.5801 366.45 40.5801 366.03C40.561 365.84 40.5678 365.648 40.6001 365.46Z" fill="#263238"/>
<path d="M38.02 404.84C37.385 401.025 35.8513 397.415 33.5457 394.309C31.24 391.204 28.2285 388.692 24.76 386.98C22.98 386.13 20.66 385.57 19.21 386.89C17.76 388.21 18.02 390.6 18.76 392.42C20.3197 396.227 22.9714 399.488 26.381 401.791C29.7907 404.093 33.8057 405.335 37.92 405.36" fill="#FF725E"/>
<path d="M25.57 392.96C25.9599 393.082 26.3355 393.247 26.69 393.45C27.1301 393.65 27.5575 393.877 27.97 394.13C28.5269 394.435 29.0676 394.769 29.59 395.13C30.2309 395.564 30.8484 396.031 31.44 396.53C32.1415 397.087 32.8093 397.684 33.44 398.32C34.8689 399.779 36.127 401.396 37.19 403.14C38.226 404.898 39.0549 406.771 39.66 408.72C39.9221 409.573 40.1325 410.441 40.29 411.32C40.4382 412.08 40.545 412.848 40.61 413.62C40.7 414.32 40.67 414.97 40.7 415.53C40.7281 416.01 40.7281 416.49 40.7 416.97C40.6924 417.38 40.6489 417.788 40.57 418.19C40.46 418.19 40.64 416.44 40.33 413.65C40.2516 412.89 40.1281 412.135 39.96 411.39C39.7902 410.532 39.5732 409.684 39.31 408.85C38.6649 406.938 37.8097 405.103 36.76 403.38C35.7147 401.663 34.4913 400.061 33.11 398.6C32.5064 397.966 31.8688 397.365 31.2 396.8C30.6249 396.296 30.0241 395.822 29.4 395.38C27.12 393.77 25.52 393.04 25.57 392.96Z" fill="#263238"/>
<path d="M426.67 299.7H425.67H422.67H411.06L367.46 299.77L367.62 299.61C367.62 308.31 367.62 318.16 367.62 328.81V329H367.43L275.33 329.05L275.57 328.81C275.57 339.55 275.57 350.93 275.57 362.58V362.84H183.25L183.51 362.58C183.51 374.76 183.51 386.667 183.51 398.3V398.6H183.26H84.56L84.77 398.4C84.77 406.34 84.77 413.84 84.77 420.95V421.14H84.58L22.69 421.06L5.86 421.01L22.69 420.96L84.58 420.88L84.4 421.06C84.4 413.95 84.4 406.45 84.4 398.51V398.3H84.6H183.29L183.04 398.55C183.04 386.93 183.04 375.023 183.04 362.83V362.57H275.36L275.1 362.82C275.1 351.17 275.1 339.82 275.1 329.05V328.8H275.35L367.45 328.86L367.26 329.05C367.26 318.4 367.26 308.55 367.26 299.85V299.69H367.42L411.02 299.77H422.63H425.63L426.67 299.7Z" fill="#263238"/>
</svg>
